<svg xmlns="http://www.w3.org/2000/svg" viewBox="589.2 475.9 1382 714.2" preserveAspectRatio="xMidYMid meet"><path fill="rgb(8,60,92)" d="M 987.1 659.1 C 993.5 659.1 1000.0 659.0 1006.3 659.1 C 1013.0 659.2 1020.2 658.9 1026.9 659.3 L 1027.9 659.1 C 1037.8 659.2 1047.7 659.2 1057.6 659.1 C 1059.7 696.4 1059.8 734.1 1061.5 771.3 L 1062.2 774.2 C 1067.0 776.6 1081.9 775.2 1088 775.4 L 1088 775.8 C 1120.2 776.5 1152.2 775.2 1184.0 775.7 L 1226.8 775.8 C 1248.8 776.8 1274.2 775.6 1296.5 775.7 C 1298.4 777.0 1305.6 782.1 1307.3 782.9 C 1313.7 787.3 1320.3 791.6 1326.9 795.8 C 1327.1 784.8 1326.9 773.0 1327.0 762.0 L 1395.8 674.3 L 1579.9 674.4 L 1630.8 725.2 C 1643.3 737.4 1657.3 750.2 1669.2 762.7 C 1669.0 784.6 1668.9 806.5 1669.1 828.4 C 1685.4 828.8 1701.8 829.0 1718.1 828.8 C 1730.2 828.9 1745.0 828.5 1756.9 829.0 C 1766.6 828.9 1820.1 828.1 1825.3 829.8 C 1844.1 836.1 1883.1 856.0 1902.2 865.2 L 1904.9 866.0 C 1906.9 870.3 1906.0 883.7 1905.9 888.9 L 1905.9 964.5 C 1891.5 964.7 1877.1 964.7 1862.7 964.6 C 1872.7 983.8 1882.7 1004.2 1893.0 1023.1 C 1898.1 1023.1 1904.8 1022.7 1909.3 1024.8 C 1929.5 1027.9 1952.6 1035.8 1971.3 1044.2 L 1971.0 1153.9 L 1971.0 1188.3 C 1959.5 1188.4 1918.0 1190.1 1910.0 1188.1 L 1909.2 1188.2 C 1902.1 1189.6 1845.9 1188.7 1835.2 1188.6 L 1687.9 1188.6 L 1676.0 1188.5 C 1642.9 1188.5 1607.8 1189.2 1574.9 1188.6 L 1414.8 1188.5 L 1406.2 1188.3 C 1401.3 1188.5 1395.8 1188.6 1390.8 1188.4 C 1360.1 1187.7 1327.8 1190.0 1297.3 1188.3 C 1254.6 1189.7 1204.9 1188.4 1161.8 1188.2 L 1083.0 1188.4 C 1062.3 1188.4 1039.9 1188.8 1019.4 1188.2 C 1012.2 1188.5 1004.8 1188.5 997.6 1188.4 C 951.7 1188.0 905.4 1189.1 859.5 1188.3 C 828.9 1189.4 794.1 1188.6 763.1 1188.6 L 589.8 1188.5 L 589.9 1045.4 L 590.0 1006.0 C 590.0 992.4 589.2 967.1 590.4 954.5 C 596.4 945.3 625.6 895.6 630.2 891.4 C 642.3 897.1 653.9 906.2 665.9 912.3 C 669.1 914.0 674.1 916.8 677.0 918.8 C 679.6 914.1 690.5 893.5 694.1 891.6 C 702.2 895.2 731.5 913.3 741.4 919.0 C 746.5 910.2 751.7 900.7 757.3 892.2 L 759.0 892.0 C 766.8 896.1 773.6 900.5 781.1 905.0 C 780.9 888.0 780.2 853.9 781.2 835.5 C 781.8 834.9 782.3 834.3 782.8 833.7 C 791.0 826.0 807.6 813.8 816.7 806.7 C 840.0 788.1 874.5 761.4 898.7 742.2 C 899.4 742.2 900.1 742.1 900.9 742.1 C 918.6 751.5 942.5 763.4 959.3 773.4 C 965.6 776.2 974.9 775.4 981.9 775.2 C 983.3 736.9 985.0 698.6 987.2 660.3 L 987.1 659.1 z"/><path fill="rgb(255,255,255)" d="M 1084.1 892.3 L 1149.1 930.8 C 1174.2 945.5 1209.7 967.8 1234.9 981.0 L 1187.1 1008.2 C 1181.2 1011.6 1166.3 1019.6 1161.8 1023.5 C 1161.4 1026.9 1161.3 1027.8 1161.5 1031.2 L 1161.7 1044.2 C 1157.9 1045.8 1089.7 1045.5 1083.3 1044.9 C 1084.1 1032.4 1083.9 993.5 1083.2 981.6 L 1083.2 954.2 C 1083.2 944.7 1082.3 898.1 1084.1 892.3 z"/><path fill="rgb(8,60,92)" d="M 987.1 659.1 C 993.5 659.1 1000.0 659.0 1006.3 659.1 C 1013.0 659.2 1020.2 658.9 1026.9 659.3 L 1027.9 659.1 C 1037.8 659.2 1047.7 659.2 1057.6 659.1 C 1059.7 696.4 1059.8 734.1 1061.5 771.3 L 1062.2 774.2 C 1067.0 776.6 1081.9 775.2 1088 775.4 L 1088 775.8 C 1084.9 775.6 1081.2 775.8 1078.0 775.8 C 1084.7 781.6 1106.6 801.1 1113.0 805.3 C 1124.9 815.3 1136.9 825.6 1148.9 835.4 C 1150.2 854.4 1149.0 874.9 1149.3 894.0 C 1149.4 900.8 1148.9 912.9 1149.8 919.3 L 1149.8 920.0 L 1149.1 930.8 L 1084.1 892.3 C 1082.3 898.1 1083.2 944.7 1083.2 954.2 L 1083.2 981.6 C 1083.9 993.5 1084.1 1032.4 1083.3 1044.9 L 1082.5 1045.1 C 1083.7 1051.2 1083.2 1078.3 1083.2 1085.9 L 1083.2 1170.8 L 1083.0 1188.4 C 1062.3 1188.4 1039.9 1188.8 1019.4 1188.2 C 1012.2 1188.5 1004.8 1188.5 997.6 1188.4 C 951.7 1188.0 905.4 1189.1 859.5 1188.3 C 828.9 1189.4 794.1 1188.6 763.1 1188.6 L 589.8 1188.5 L 589.9 1045.4 L 590.0 1006.0 C 590.0 992.4 589.2 967.1 590.4 954.5 C 596.4 945.3 625.6 895.6 630.2 891.4 C 642.3 897.1 653.9 906.2 665.9 912.3 C 669.1 914.0 674.1 916.8 677.0 918.8 C 679.6 914.1 690.5 893.5 694.1 891.6 C 702.2 895.2 731.5 913.3 741.4 919.0 C 746.5 910.2 751.7 900.7 757.3 892.2 L 759.0 892.0 C 766.8 896.1 773.6 900.5 781.1 905.0 C 780.9 888.0 780.2 853.9 781.2 835.5 C 781.8 834.9 782.3 834.3 782.8 833.7 C 791.0 826.0 807.6 813.8 816.7 806.7 C 840.0 788.1 874.5 761.4 898.7 742.2 C 899.4 742.2 900.1 742.1 900.9 742.1 C 918.6 751.5 942.5 763.4 959.3 773.4 C 965.6 776.2 974.9 775.4 981.9 775.2 C 983.3 736.9 985.0 698.6 987.2 660.3 L 987.1 659.1 z"/><path fill="rgb(4,38,59)" d="M 987.1 659.1 C 993.5 659.1 1000.0 659.0 1006.3 659.1 C 1013.0 659.2 1020.2 658.9 1026.9 659.3 L 1027.9 659.1 C 1037.8 659.2 1047.7 659.2 1057.6 659.1 C 1059.7 696.4 1059.8 734.1 1061.5 771.3 L 1062.2 774.2 C 1067.0 776.6 1081.9 775.2 1088 775.4 L 1088 775.8 C 1084.9 775.6 1081.2 775.8 1078.0 775.8 C 1084.7 781.6 1106.6 801.1 1113.0 805.3 C 1124.9 815.3 1136.9 825.6 1148.9 835.4 C 1150.2 854.4 1149.0 874.9 1149.3 894.0 C 1149.4 900.8 1148.9 912.9 1149.8 919.3 L 1149.8 920.0 L 1149.1 930.8 L 1084.1 892.3 C 1082.3 898.1 1083.2 944.7 1083.2 954.2 C 1077.9 954.1 1072.6 954.1 1067.3 954.1 C 1056.1 955.2 1012.4 955.6 1000.6 954.8 C 993.8 955.0 981.8 955.7 975.5 954.1 C 934.3 953.2 892.4 955.0 850.7 954.0 L 850.1 954.2 C 830.2 953.5 806.8 954.2 786.6 954.3 C 765.6 953.7 744.2 954.8 723.1 954.1 L 722.6 951.9 C 728.8 942.0 735.1 929.5 741.4 919.0 C 746.5 910.2 751.7 900.7 757.3 892.2 L 759.0 892.0 C 766.8 896.1 773.6 900.5 781.1 905.0 C 780.9 888.0 780.2 853.9 781.2 835.5 C 781.8 834.9 782.3 834.3 782.8 833.7 C 791.0 826.0 807.6 813.8 816.7 806.7 C 840.0 788.1 874.5 761.4 898.7 742.2 C 899.4 742.2 900.1 742.1 900.9 742.1 C 918.6 751.5 942.5 763.4 959.3 773.4 C 965.6 776.2 974.9 775.4 981.9 775.2 C 983.3 736.9 985.0 698.6 987.2 660.3 L 987.1 659.1 z"/><path fill="rgb(14,110,158)" d="M 868.9 918.5 C 874.8 911.9 880.9 894.2 887.1 891.1 L 888.1 892.2 C 902.7 900.7 919.4 910.2 933.6 918.9 C 936.2 914.2 948.0 893.1 952.1 891.3 L 953.1 892.3 C 964.0 898.1 988.3 912.6 998.6 919.0 C 1001.5 913.8 1012.2 893.2 1016.6 891.3 C 1028.8 898.9 1050.7 911.8 1063.3 918.3 C 1066.7 912.7 1077.8 894.2 1082.1 891.3 L 1084.1 892.3 C 1082.3 898.1 1083.2 944.7 1083.2 954.2 C 1077.9 954.1 1072.6 954.1 1067.3 954.1 C 1056.1 955.2 1012.4 955.6 1000.6 954.8 C 993.8 955.0 981.8 955.7 975.5 954.1 C 934.3 953.2 892.4 955.0 850.7 954.0 L 850.1 954.2 C 830.2 953.5 806.8 954.2 786.6 954.3 C 765.6 953.7 744.2 954.8 723.1 954.1 L 722.6 951.9 C 728.8 942.0 735.1 929.5 741.4 919.0 C 746.5 910.2 751.7 900.7 757.3 892.2 L 759.0 892.0 C 766.8 896.1 773.6 900.5 781.1 905.0 C 787.4 908.9 798.2 915.3 804.8 918.6 C 808.5 913.2 819.3 892.9 823.1 891.2 L 824.4 892.3 C 837.6 899.6 856.3 910.6 868.9 918.5 z"/><path fill="rgb(255,255,255)" d="M 1016.6 891.3 C 1028.8 898.9 1050.7 911.8 1063.3 918.3 C 1062.0 921.8 1046.8 948.0 1044.3 951.5 C 1037.4 932.2 1024.6 910.9 1016.6 891.3 z"/><path fill="rgb(255,255,255)" d="M 915.3 951.9 C 912.1 945.0 888.4 897.0 888.2 893.6 L 888.1 892.2 C 902.7 900.7 919.4 910.2 933.6 918.9 C 929.4 928.2 920.6 941.4 915.3 951.9 z"/><path fill="rgb(255,255,255)" d="M 953.1 892.3 C 964.0 898.1 988.3 912.6 998.6 919.0 C 996.1 924.2 982.4 948.0 979.3 951.3 C 975.6 940.8 953.9 897.9 953.1 892.3 z"/><path fill="rgb(255,255,255)" d="M 824.4 892.3 C 837.6 899.6 856.3 910.6 868.9 918.5 C 867.8 922.0 852.8 948.2 850.5 951.2 C 846.7 940.8 824.7 897.4 824.4 892.3 z"/><path fill="rgb(255,255,255)" d="M 759.0 892.0 C 766.8 896.1 773.6 900.5 781.1 905.0 C 787.4 908.9 798.2 915.3 804.8 918.6 C 803.6 922.1 788.5 950.2 786.2 950.9 C 779.5 932.1 766.5 910.6 759.0 892.0 z"/><path fill="rgb(8,60,92)" d="M 816.7 806.7 C 840.0 788.1 874.5 761.4 898.7 742.2 C 899.4 742.2 900.1 742.1 900.9 742.1 C 918.6 751.5 942.5 763.4 959.3 773.4 C 965.6 776.2 974.9 775.4 981.9 775.2 L 1005.5 775.1 C 994.5 786.0 983.3 796.7 971.9 807.2 C 950.5 807.1 929.0 807.0 907.6 807.1 C 918.0 797.0 933.2 785.5 942.2 775.9 C 934.3 775.7 926.3 775.7 918.4 775.9 C 909.5 784.0 892.1 798.7 884.7 806.9 L 884.0 807.0 C 863.2 807.1 837.1 807.8 816.7 806.7 z"/><path fill="rgb(14,110,158)" d="M 1057.6 659.1 C 1059.7 696.4 1059.8 734.1 1061.5 771.3 L 1060.9 774.3 C 1057.4 776.8 1033.9 775.8 1027.8 775.8 L 1027.9 659.1 C 1037.8 659.2 1047.7 659.2 1057.6 659.1 z"/><path fill="rgb(8,60,92)" d="M 1027.9 659.1 L 1027.8 775.8 C 1033.9 775.8 1057.4 776.8 1060.9 774.3 L 1061.5 771.3 L 1062.2 774.2 C 1067.0 776.6 1081.9 775.2 1088 775.4 L 1088 775.8 C 1084.9 775.6 1081.2 775.8 1078.0 775.8 C 1070.2 781.8 1053.1 799.4 1044.9 807.2 C 1032.7 807.2 1006.2 807.9 995.2 806.6 C 999.9 802.7 1024.9 779.4 1027.2 776.4 C 1026.3 768.0 1027.0 746.1 1027.0 737.0 L 1026.9 659.3 L 1027.9 659.1 z"/><path fill="rgb(4,38,59)" d="M 589.9 1045.4 C 620.5 1045.2 651.2 1045.2 681.8 1045.3 C 694.3 1045.3 716.8 1044.9 728.8 1045.9 C 754.6 1046.2 780.3 1046.3 806.1 1046.2 C 818.1 1046.2 840.2 1046.9 851.8 1045.8 L 853.6 1046.1 C 868.6 1096.8 917.3 1138.8 962.5 1163.3 C 970.8 1167.9 979.4 1172 988.2 1175.6 C 994.6 1178.2 1015.5 1185.2 1019.4 1188.2 C 1012.2 1188.5 1004.8 1188.5 997.6 1188.4 C 951.7 1188.0 905.4 1189.1 859.5 1188.3 C 828.9 1189.4 794.1 1188.6 763.1 1188.6 L 589.8 1188.5 L 589.9 1045.4 z"/><path fill="rgb(8,60,92)" d="M 987.7 1045.4 L 1082.5 1045.1 C 1083.7 1051.2 1083.2 1078.3 1083.2 1085.9 L 1083.2 1170.8 L 1083.0 1188.4 C 1062.3 1188.4 1039.9 1188.8 1019.4 1188.2 C 1015.5 1185.2 994.6 1178.2 988.2 1175.6 C 979.4 1172 970.8 1167.9 962.5 1163.3 C 917.3 1138.8 868.6 1096.8 853.6 1046.1 L 934.4 1046.2 C 947.9 1046.2 965.8 1045.7 978.9 1046.3 C 982.1 1046.5 985.2 1047.1 987.7 1045.4 z"/><path fill="rgb(4,38,59)" d="M 590.4 954.5 L 699.2 954.2 C 705.4 955.4 719.2 954.8 726.3 955.1 C 723.2 973.0 722.2 987.0 722.8 1005.3 C 716.3 1005.4 704.8 1005.1 698.7 1005.9 C 663.9 1005.1 625.2 1006.0 590.0 1006.0 C 590.0 992.4 589.2 967.1 590.4 954.5 z"/><path fill="rgb(14,110,158)" d="M 794.2 1005.8 C 810.0 1006.7 830.7 1006.1 846.7 1006 C 847.2 1019.3 849.5 1032.5 853.6 1045.2 C 893.7 1045.3 939.5 1044.2 979.1 1045.4 L 987.7 1045.4 C 985.2 1047.1 982.1 1046.5 978.9 1046.3 C 965.8 1045.7 947.9 1046.2 934.4 1046.2 L 853.6 1046.1 L 851.8 1045.8 C 839.2 1044.8 820.0 1045.3 807.0 1045.3 L 728.9 1045.2 C 725.3 1030.8 724.1 1020.7 722.9 1006.1 C 746.6 1005.6 770.7 1006.3 794.2 1005.8 z"/><path fill="rgb(29,150,201)" d="M 972.8 1005.8 L 973.5 1006.0 C 973.5 1017.9 975.6 1034.0 979.1 1045.4 C 939.5 1044.2 893.7 1045.3 853.6 1045.2 C 849.5 1032.5 847.2 1019.3 846.7 1006 C 886.0 1005.9 934.7 1007.5 972.8 1005.8 z"/><path fill="rgb(94,194,232)" d="M 1083.2 981.6 C 1083.9 993.5 1084.1 1032.4 1083.3 1044.9 L 1082.5 1045.1 L 987.7 1045.4 L 979.1 1045.4 C 975.6 1034.0 973.5 1017.9 973.5 1006.0 L 1083.0 1006.1 C 1083.0 997.9 1083.0 989.8 1083.2 981.6 z"/><path fill="rgb(255,255,255)" d="M 694.1 891.6 C 702.2 895.2 731.5 913.3 741.4 919.0 C 735.1 929.5 728.8 942.0 722.6 951.9 C 713.8 931.4 703.5 911.7 694.1 891.6 z"/><path fill="rgb(255,255,255)" d="M 630.2 891.4 C 642.3 897.1 653.9 906.2 665.9 912.3 C 669.1 914.0 674.1 916.8 677.0 918.8 C 670.7 930.1 665.0 939.9 659.1 951.5 C 649.6 932.1 639.4 911.0 630.2 891.4 z"/><path fill="rgb(228,243,250)" d="M 1783.9 964.6 C 1810.2 964.8 1836.4 964.8 1862.7 964.6 C 1872.7 983.8 1882.7 1004.2 1893.0 1023.1 C 1898.1 1023.1 1904.8 1022.7 1909.3 1024.8 C 1929.5 1027.9 1952.6 1035.8 1971.3 1044.2 L 1971.0 1153.9 L 1971.0 1188.3 C 1959.5 1188.4 1918.0 1190.1 1910.0 1188.1 L 1909.2 1188.2 C 1902.1 1189.6 1845.9 1188.7 1835.2 1188.6 L 1687.9 1188.6 L 1676.0 1188.5 L 1675.9 1180.5 L 1675.9 1174.1 L 1675.8 1167.9 L 1675.9 1160.5 L 1675.8 1154.9 C 1675.9 1152.6 1675.9 1150.4 1675.9 1148.1 L 1675.9 1141.9 L 1676.0 1134.8 L 1675.9 1128.6 C 1675.9 1126.4 1675.9 1124.2 1675.9 1122 L 1675.9 1115.9 C 1676.0 1113.7 1676.0 1111.4 1676.0 1109.2 L 1675.9 1103.0 L 1676.0 1096.0 L 1675.8 1090.1 C 1676.0 1087.8 1676.0 1085.5 1676 1083.2 L 1675.9 1077.2 C 1676.0 1074.8 1676.0 1072.5 1676.0 1070.1 L 1675.9 1064.2 C 1676.0 1061.8 1676.0 1059.5 1676.0 1057.1 L 1675.9 1051.0 C 1676.0 1049.0 1676.0 1047.0 1676.0 1045.0 L 1676.0 1038.4 C 1676 1033.4 1676.0 1028.4 1676.0 1023.4 C 1686.8 1023.4 1698.5 1023.4 1709.2 1022.9 C 1706.3 1013.0 1690.9 977.3 1686.0 967.2 C 1683.9 965.1 1680.0 965.3 1676.8 964.9 C 1709.8 963.7 1750.5 964.3 1783.9 964.6 z"/><path fill="rgb(4,38,59)" d="M 1909.3 1024.8 C 1929.5 1027.9 1952.6 1035.8 1971.3 1044.2 L 1971.0 1153.9 L 1971.0 1188.3 C 1959.5 1188.4 1918.0 1190.1 1910.0 1188.1 L 1909.2 1188.2 L 1909.3 1181.4 L 1909.2 1173.8 L 1909.5 1168.2 L 1909.2 1160.0 L 1909.4 1154.5 L 1909.2 1147.7 L 1909.5 1142.2 L 1909.2 1134.0 L 1909.4 1128.7 L 1909.2 1121.3 L 1909.3 1116.0 L 1909.3 1108.9 L 1909.4 1103.2 L 1909.2 1095.8 L 1909.5 1090.1 L 1909.2 1082.9 L 1909.3 1076.6 L 1909.2 1069.8 L 1909.3 1064.7 L 1909.1 1056.8 L 1909.3 1051.2 L 1909.1 1044.1 L 1909.5 1038.5 L 1909.3 1024.8 z"/><path fill="rgb(14,110,158)" d="M 1909.3 1024.8 C 1929.5 1027.9 1952.6 1035.8 1971.3 1044.2 L 1971.0 1153.9 C 1949.8 1118.7 1930.0 1079.0 1910.1 1042.8 C 1910.1 1090.3 1911.1 1140.9 1910.0 1188.1 L 1909.2 1188.2 L 1909.3 1181.4 L 1909.2 1173.8 L 1909.5 1168.2 L 1909.2 1160.0 L 1909.4 1154.5 L 1909.2 1147.7 L 1909.5 1142.2 L 1909.2 1134.0 L 1909.4 1128.7 L 1909.2 1121.3 L 1909.3 1116.0 L 1909.3 1108.9 L 1909.4 1103.2 L 1909.2 1095.8 L 1909.5 1090.1 L 1909.2 1082.9 L 1909.3 1076.6 L 1909.2 1069.8 L 1909.3 1064.7 L 1909.1 1056.8 L 1909.3 1051.2 L 1909.1 1044.1 L 1909.5 1038.5 L 1909.3 1024.8 z"/><path fill="rgb(14,110,158)" d="M 1676.8 964.9 C 1709.8 963.7 1750.5 964.3 1783.9 964.6 C 1792.5 982.8 1804.1 1005.5 1813.8 1023.1 L 1710.4 1023.3 L 1709.2 1022.9 C 1706.3 1013.0 1690.9 977.3 1686.0 967.2 C 1683.9 965.1 1680.0 965.3 1676.8 964.9 z"/><path fill="rgb(29,150,201)" d="M 1783.9 964.6 C 1810.2 964.8 1836.4 964.8 1862.7 964.6 C 1872.7 983.8 1882.7 1004.2 1893.0 1023.1 L 1813.8 1023.1 C 1804.1 1005.5 1792.5 982.8 1783.9 964.6 z"/><path fill="rgb(255,255,255)" d="M 1688.1 1181.0 L 1909.3 1181.4 L 1909.2 1188.2 C 1902.1 1189.6 1845.9 1188.7 1835.2 1188.6 L 1687.9 1188.6 L 1688.1 1181.0 z"/><path fill="rgb(255,255,255)" d="M 1688.1 1051.0 L 1835.3 1050.5 C 1855.4 1050.5 1890.5 1049.7 1909.3 1051.2 L 1909.1 1056.8 C 1835.5 1057.3 1761.8 1057.5 1688.1 1057.1 L 1688.1 1051.0 z"/><path fill="rgb(255,255,255)" d="M 1687.7 1044.6 C 1687.7 1042.0 1687.5 1041.2 1688.6 1038.8 C 1693.4 1037.1 1748.2 1038.3 1757 1038.3 L 1909.5 1038.5 L 1909.1 1044.1 C 1891.2 1045.0 1871.6 1044.2 1853.6 1044.6 C 1798.9 1045.8 1742.1 1043.3 1687.7 1044.6 z"/><path fill="rgb(255,255,255)" d="M 1688.0 1077.5 C 1693.5 1076.4 1741.8 1077.0 1750.9 1077.0 L 1909.3 1076.6 L 1909.2 1082.9 C 1835.5 1083.2 1761.8 1083.2 1688.1 1082.8 L 1688.0 1077.5 z"/><path fill="rgb(255,255,255)" d="M 1687.9 1142.5 C 1699.6 1141.0 1746.2 1141.8 1760.1 1141.9 C 1809.0 1142.4 1860.9 1140.6 1909.5 1142.2 L 1909.2 1147.7 C 1885.1 1149.0 1851.1 1148.0 1826.5 1148.0 L 1688.1 1147.8 L 1687.9 1142.5 z"/><path fill="rgb(255,255,255)" d="M 1688.0 1103.5 C 1702.0 1101.9 1743.5 1103.0 1759.2 1103.0 L 1909.4 1103.2 L 1909.3 1108.9 C 1835.5 1109.5 1761.8 1109.5 1688.1 1108.8 L 1688.0 1103.5 z"/><path fill="rgb(255,255,255)" d="M 1688.1 1064.8 C 1694.4 1063.8 1709.3 1064.2 1716.6 1064.2 L 1771.9 1064.1 L 1859.9 1064.1 C 1873.9 1064.1 1896.0 1063.5 1909.3 1064.7 L 1909.2 1069.8 C 1881.5 1070.8 1848.9 1070.0 1820.9 1070.1 C 1776.7 1070.5 1732.4 1070.5 1688.2 1069.8 L 1688.1 1064.8 z"/><path fill="rgb(255,255,255)" d="M 1688.1 1155 C 1731.4 1154.3 1774.4 1154.5 1817.7 1154.8 C 1848.0 1155.1 1879.2 1153.9 1909.4 1154.5 L 1909.2 1160.0 C 1882.1 1161.4 1850.5 1160.7 1823.0 1160.7 L 1688.1 1160.2 L 1688.1 1155 z"/><path fill="rgb(255,255,255)" d="M 1688.0 1090.8 C 1693.9 1089.8 1707.1 1090.1 1713.6 1090.1 L 1759.1 1090 C 1808.4 1090.0 1860.4 1089.2 1909.5 1090.1 L 1909.2 1095.8 C 1885.4 1096.5 1858.5 1095.9 1834.6 1095.9 L 1688.1 1095.8 L 1688.0 1090.8 z"/><path fill="rgb(255,255,255)" d="M 1687.9 1116.5 C 1692.4 1115.4 1741.2 1115.8 1748.5 1115.8 L 1909.3 1116.0 L 1909.2 1121.3 C 1873.8 1123.2 1827.8 1121.2 1790.9 1121.5 L 1721.0 1121.9 C 1713.0 1121.9 1695.6 1122.3 1688.0 1121.3 L 1687.9 1116.5 z"/><path fill="rgb(255,255,255)" d="M 1688.1 1129.0 L 1909.4 1128.7 L 1909.2 1134.0 C 1859.0 1134.5 1808.7 1134.7 1758.5 1134.6 C 1745.0 1134.7 1699.5 1136.0 1688.0 1134.3 L 1688.1 1129.0 z"/><path fill="rgb(255,255,255)" d="M 1687.9 1168.5 C 1703.8 1167.4 1724.6 1168.4 1741.0 1168.8 C 1796.9 1170.0 1853.7 1167.3 1909.5 1168.2 L 1909.2 1173.8 C 1884.2 1174.7 1855.3 1174.2 1830.1 1174.3 C 1782.8 1174.4 1735.5 1174.3 1688.1 1173.8 L 1687.9 1168.5 z"/><path fill="rgb(94,194,232)" d="M 1709.2 1022.9 L 1710.4 1023.3 C 1704.9 1024.1 1693.8 1023.7 1687.8 1023.8 C 1687.8 1028.7 1687.8 1033.5 1687.9 1038.4 C 1683.9 1038.5 1679.9 1038.4 1676.0 1038.4 C 1676 1033.4 1676.0 1028.4 1676.0 1023.4 C 1686.8 1023.4 1698.5 1023.4 1709.2 1022.9 z"/><path fill="rgb(94,194,232)" d="M 1675.9 1160.5 C 1680.1 1160.4 1683.8 1160.1 1687.9 1160.8 C 1688.0 1163.3 1687.9 1165.3 1687.8 1167.8 C 1683.7 1168.1 1679.9 1168.0 1675.8 1167.9 L 1675.9 1160.5 z"/><path fill="rgb(94,194,232)" d="M 1676.0 1057.1 C 1680.2 1057.1 1684.0 1056.6 1688 1057.7 C 1688.0 1059.9 1688.0 1062.0 1687.9 1064.2 C 1683.8 1064.3 1680.0 1064.2 1675.9 1064.2 C 1676.0 1061.8 1676.0 1059.5 1676.0 1057.1 z"/><path fill="rgb(94,194,232)" d="M 1676.0 1134.8 C 1680.2 1134.7 1683.7 1134.7 1687.9 1134.9 C 1688.0 1137.4 1687.9 1139.3 1687.9 1141.8 C 1683.9 1141.9 1679.9 1141.9 1675.9 1141.9 L 1676.0 1134.8 z"/><path fill="rgb(94,194,232)" d="M 1676.0 1070.1 C 1680.2 1070.0 1683.9 1069.8 1688.0 1070.5 C 1688.0 1072.6 1688.0 1074.7 1687.9 1076.8 C 1683.7 1077.3 1680.0 1077.1 1675.9 1077.2 C 1676.0 1074.8 1676.0 1072.5 1676.0 1070.1 z"/><path fill="rgb(94,194,232)" d="M 1676 1083.2 C 1680.2 1083.1 1683.9 1082.8 1688.1 1083.5 C 1688.0 1085.7 1688.0 1087.9 1687.9 1090.2 C 1683.9 1090.2 1679.8 1090.1 1675.8 1090.1 C 1676.0 1087.8 1676.0 1085.5 1676 1083.2 z"/><path fill="rgb(94,194,232)" d="M 1676.0 1096.0 C 1680.3 1096.0 1683.8 1095.6 1688.0 1096.5 C 1688 1098.6 1687.9 1100.7 1687.8 1102.8 C 1683.8 1103.1 1680.0 1103 1675.9 1103.0 L 1676.0 1096.0 z"/><path fill="rgb(94,194,232)" d="M 1675.9 1148.1 C 1680.1 1148.1 1683.9 1147.9 1688.0 1148.5 L 1688 1154.3 C 1683.9 1155.2 1680.0 1154.9 1675.8 1154.9 C 1675.9 1152.6 1675.9 1150.4 1675.9 1148.1 z"/><path fill="rgb(94,194,232)" d="M 1675.9 1122 C 1679.9 1121.9 1683.9 1121.9 1687.9 1122.0 C 1688.0 1124.1 1688.0 1126.2 1688.0 1128.3 C 1683.9 1129.0 1680.0 1128.7 1675.9 1128.6 C 1675.9 1126.4 1675.9 1124.2 1675.9 1122 z"/><path fill="rgb(94,194,232)" d="M 1676.0 1109.2 C 1680.0 1109.2 1684.0 1109.0 1688.0 1109.5 C 1688.0 1111.6 1687.9 1113.7 1687.8 1115.8 C 1683.7 1116.0 1680.0 1115.9 1675.9 1115.9 C 1676.0 1113.7 1676.0 1111.4 1676.0 1109.2 z"/><path fill="rgb(94,194,232)" d="M 1675.9 1174.1 C 1680.1 1174.1 1683.9 1173.8 1688.0 1174.5 L 1688.0 1180.2 C 1683.7 1180.6 1680.1 1180.4 1675.9 1180.5 L 1675.9 1174.1 z"/><path fill="rgb(94,194,232)" d="M 1676.0 1045.0 C 1680.3 1045.1 1683.8 1044.7 1688.0 1045.4 L 1688.0 1050.3 C 1683.7 1051.3 1680.4 1050.8 1675.9 1051.0 C 1676.0 1049.0 1676.0 1047.0 1676.0 1045.0 z"/><path fill="rgb(255,255,255)" d="M 1088 775.8 C 1120.2 776.5 1152.2 775.2 1184.0 775.7 L 1226.8 775.8 C 1248.8 776.8 1274.2 775.6 1296.5 775.7 C 1298.4 777.0 1305.6 782.1 1307.3 782.9 C 1313.7 787.3 1320.3 791.6 1326.9 795.8 C 1331.5 799.0 1336.2 802.0 1341.0 804.8 C 1349.0 810.0 1358.2 815.6 1365.9 821.2 C 1371.5 824.9 1382.4 831.8 1388.0 834.8 L 1389.7 835.8 C 1392.6 840.7 1390.7 885.5 1391.2 895.6 C 1391.2 902.6 1391.3 913.5 1390.7 920.2 L 1391.3 923.6 C 1390.5 931.9 1390.9 941.8 1391.0 950.3 C 1365.0 950.2 1313.4 949.0 1287.3 951.1 C 1283.5 951.4 1243.6 976.9 1234.9 981.0 C 1209.7 967.8 1174.2 945.5 1149.1 930.8 L 1149.8 920.0 L 1149.8 919.3 C 1148.9 912.9 1149.4 900.8 1149.3 894.0 C 1149.0 874.9 1150.2 854.4 1148.9 835.4 C 1136.9 825.6 1124.9 815.3 1113.0 805.3 C 1106.6 801.1 1084.7 781.6 1078.0 775.8 C 1081.2 775.8 1084.9 775.6 1088 775.8 z"/><path fill="rgb(94,194,232)" d="M 1088 775.8 C 1120.2 776.5 1152.2 775.2 1184.0 775.7 L 1226.8 775.8 C 1248.8 776.8 1274.2 775.6 1296.5 775.7 C 1298.4 777.0 1305.6 782.1 1307.3 782.9 C 1313.7 787.3 1320.3 791.6 1326.9 795.8 C 1331.5 799.0 1336.2 802.0 1341.0 804.8 C 1349.0 810.0 1358.2 815.6 1365.9 821.2 C 1371.5 824.9 1382.4 831.8 1388.0 834.8 L 1389.7 835.8 L 1150.0 835.4 C 1150.0 856.7 1151.5 899.6 1149.8 919.3 C 1148.9 912.9 1149.4 900.8 1149.3 894.0 C 1149.0 874.9 1150.2 854.4 1148.9 835.4 C 1136.9 825.6 1124.9 815.3 1113.0 805.3 C 1106.6 801.1 1084.7 781.6 1078.0 775.8 C 1081.2 775.8 1084.9 775.6 1088 775.8 z"/><path fill="rgb(29,150,201)" d="M 1088 775.8 C 1120.2 776.5 1152.2 775.2 1184.0 775.7 L 1226.8 775.8 C 1248.8 776.8 1274.2 775.6 1296.5 775.7 C 1298.4 777.0 1305.6 782.1 1307.3 782.9 C 1313.7 787.3 1320.3 791.6 1326.9 795.8 C 1331.5 799.0 1336.2 802.0 1341.0 804.8 C 1284.7 804.3 1228.5 804.1 1172.2 804.3 C 1162.9 804.3 1118.2 804.1 1113.0 805.3 C 1106.6 801.1 1084.7 781.6 1078.0 775.8 C 1081.2 775.8 1084.9 775.6 1088 775.8 z"/><path fill="rgb(29,150,201)" d="M 1149.8 920.0 C 1229.9 920.4 1310.8 919.2 1390.7 920.2 L 1391.3 923.6 C 1390.5 931.9 1390.9 941.8 1391.0 950.3 C 1365.0 950.2 1313.4 949.0 1287.3 951.1 C 1283.5 951.4 1243.6 976.9 1234.9 981.0 C 1209.7 967.8 1174.2 945.5 1149.1 930.8 L 1149.8 920.0 z"/><path fill="rgb(94,194,232)" d="M 1319.4 865.4 C 1319.7 864.7 1320.4 862.1 1321.6 862.1 C 1337.6 861.7 1353.8 861.9 1369.8 861.7 C 1369.9 867.2 1371.1 885.1 1368.4 888.2 C 1360.9 888.0 1353.5 888.1 1346.0 888.0 L 1341.4 888.4 C 1335.3 887.8 1326.3 888.0 1320.1 888.0 C 1320.1 881.1 1320.5 872.1 1319.4 865.4 z"/><path fill="rgb(20,231,233)" d="M 1319.4 865.4 C 1325.7 867.0 1334.4 866.6 1341.2 866.6 C 1341.2 873.9 1341.3 881.1 1341.4 888.4 C 1335.3 887.8 1326.3 888.0 1320.1 888.0 C 1320.1 881.1 1320.5 872.1 1319.4 865.4 z"/><path fill="rgb(8,60,92)" d="M 1319.4 865.4 C 1319.7 864.7 1320.4 862.1 1321.6 862.1 C 1337.6 861.7 1353.8 861.9 1369.8 861.7 C 1369.9 867.2 1371.1 885.1 1368.4 888.2 C 1366.5 883.6 1367.3 872.6 1367.2 866.8 L 1345.9 866.8 L 1346.0 888.0 L 1341.4 888.4 C 1341.3 881.1 1341.2 873.9 1341.2 866.6 C 1334.4 866.6 1325.7 867.0 1319.4 865.4 z"/><path fill="rgb(20,231,233)" d="M 1250.2 866.0 C 1250.2 866.0 1250.3 862.5 1250.8 862.5 C 1266.6 861.4 1283.5 861.9 1299.5 861.9 C 1299.6 867.5 1300.8 885.4 1298.0 888.4 C 1290.5 888.1 1283.1 888.2 1275.5 888.2 L 1270.8 888.5 C 1264.5 888.0 1256.5 888.2 1250.0 888.2 C 1250.0 881.2 1249.8 873.0 1250.2 866.0 z"/><path fill="rgb(20,231,233)" d="M 1250.2 866.0 C 1254.1 867.4 1265.8 866.8 1270.7 866.9 C 1270.7 874.1 1270.7 881.3 1270.8 888.5 C 1264.5 888.0 1256.5 888.2 1250.0 888.2 C 1250.0 881.2 1249.8 873.0 1250.2 866.0 z"/><path fill="rgb(8,60,92)" d="M 1250.2 866.0 C 1250.2 866.0 1250.3 862.5 1250.8 862.5 C 1266.6 861.4 1283.5 861.9 1299.5 861.9 C 1299.6 867.5 1300.8 885.4 1298.0 888.4 C 1296.5 882.1 1297.1 873.6 1297.1 866.9 L 1275.4 866.8 L 1275.5 888.2 L 1270.8 888.5 C 1270.7 881.3 1270.7 874.1 1270.7 866.9 C 1265.8 866.8 1254.1 867.4 1250.2 866.0 z"/><path fill="rgb(20,231,233)" d="M 1181.1 866.1 L 1181.1 864.5 C 1181.1 864.3 1181.0 862.2 1181.4 862.2 C 1197.1 861.4 1213.9 861.7 1229.8 861.6 C 1229.9 867.1 1230.9 885.1 1228.6 888.3 C 1221.1 888.1 1213.8 888.2 1206.3 888.0 L 1201.7 888.3 C 1195.1 887.9 1187.6 888.1 1180.9 888.1 C 1180.9 881.0 1180.8 873.1 1181.1 866.1 z"/><path fill="rgb(20,231,233)" d="M 1181.1 866.1 C 1185.3 867.0 1196.6 866.7 1201.6 866.7 L 1201.7 888.3 C 1195.1 887.9 1187.6 888.1 1180.9 888.1 C 1180.9 881.0 1180.8 873.1 1181.1 866.1 z"/><path fill="rgb(8,60,92)" d="M 1181.1 866.1 L 1181.1 864.5 C 1181.1 864.3 1181.0 862.2 1181.4 862.2 C 1197.1 861.4 1213.9 861.7 1229.8 861.6 C 1229.9 867.1 1230.9 885.1 1228.6 888.3 C 1227 882.1 1227.6 873.5 1227.6 866.9 L 1206.3 866.8 L 1206.3 888.0 L 1201.7 888.3 L 1201.6 866.7 C 1196.6 866.7 1185.3 867.0 1181.1 866.1 z"/><path fill="rgb(4,38,59)" d="M 1217.8 1023.8 C 1245.9 1022.0 1276.9 1023.6 1305.2 1023.2 C 1314.2 1023.1 1327.2 1024.2 1335.6 1023.7 C 1335.7 1024.2 1335.7 1024.7 1335.8 1025.1 C 1334.6 1038.2 1334.0 1050.7 1333.8 1063.7 C 1333.2 1108.0 1356.1 1145.0 1388.4 1173.4 C 1394.2 1178.5 1400.5 1183.2 1406.2 1188.3 C 1401.3 1188.5 1395.8 1188.6 1390.8 1188.4 C 1360.1 1187.7 1327.8 1190.0 1297.3 1188.3 C 1254.6 1189.7 1204.9 1188.4 1161.8 1188.2 L 1083.0 1188.4 L 1083.2 1170.8 L 1083.2 1085.9 C 1083.2 1078.3 1083.7 1051.2 1082.5 1045.1 L 1083.3 1044.9 C 1089.7 1045.5 1157.9 1045.8 1161.7 1044.2 L 1161.5 1031.2 C 1161.8 1028.3 1161.7 1026.2 1163.4 1024.0 C 1170.7 1022.8 1208.3 1023.7 1217.8 1023.8 z"/><path fill="rgb(20,231,233)" d="M 1161.7 1044.2 L 1161.8 1188.2 L 1083.0 1188.4 L 1083.2 1170.8 L 1083.2 1085.9 C 1083.2 1078.3 1083.7 1051.2 1082.5 1045.1 L 1083.3 1044.9 C 1089.7 1045.5 1157.9 1045.8 1161.7 1044.2 z"/><path fill="rgb(20,231,233)" d="M 1182.8 1063.0 C 1190.5 1062.8 1198.5 1063.0 1206.2 1063 C 1206.3 1071.3 1206.5 1076.1 1207.3 1084.5 C 1200.6 1083.7 1190.0 1084.1 1183.1 1084.1 C 1183.1 1077.1 1183.2 1070.0 1182.8 1063.0 z"/><path fill="rgb(20,231,233)" d="M 1262.1 1063.4 C 1267.4 1062.8 1279.3 1063.2 1285.1 1063.2 C 1285.4 1070.5 1285.6 1077.4 1286.3 1084.6 C 1279.8 1083.8 1269.3 1084.2 1262.5 1084.2 C 1262.4 1077.3 1262.7 1070.2 1262.1 1063.4 z"/><path fill="rgb(20,231,233)" d="M 1289.8 1063.2 L 1313.1 1063.3 C 1313.1 1070.3 1312.5 1078.1 1314.2 1084.7 C 1306.8 1083.9 1297.0 1084.0 1289.5 1084.3 C 1289.9 1077.5 1289.8 1070.1 1289.8 1063.2 z"/><path fill="rgb(20,231,233)" d="M 1210.7 1063.0 C 1218.3 1063.1 1226.0 1063.2 1233.6 1063.2 C 1233.6 1068.6 1233.2 1079.6 1234.3 1084.3 C 1227.0 1084.0 1218.0 1083.9 1210.7 1084.3 L 1210.7 1063.0 z"/><path fill="url(#Gradient1)" d="M 1182.7 1061.3 C 1182.5 1061.3 1182.3 1061.3 1182.1 1061.2 L 1181.6 1060.7 C 1181.2 1060.7 1181.4 1060.7 1181.1 1060.8 L 1181.0 1060.6 C 1183.8 1059.2 1181.0 1057.5 1182.3 1056.5 C 1183.9 1055.4 1192.9 1055.9 1194.9 1055.9 C 1206.9 1056.0 1218.7 1056 1230.7 1056.2 C 1236.2 1056.3 1235.9 1055.7 1237.8 1060.6 C 1233.1 1062.6 1191.1 1061.6 1182.7 1061.3 z"/><path fill="rgb(8,60,92)" d="M 1260.8 1058.2 C 1261.4 1057.4 1262.7 1055.7 1263.6 1055.8 C 1272.5 1055.8 1310.4 1053.9 1316.0 1056.8 C 1315.9 1057.6 1315.8 1059.2 1315.4 1059.8 C 1314.6 1060.0 1314.1 1059.2 1313.8 1059.2 C 1300.4 1057.6 1272.8 1060.4 1260.8 1058.2 z"/><path fill="rgb(255,255,255)" d="M 1669.1 828.4 C 1685.4 828.8 1701.8 829.0 1718.1 828.8 C 1730.2 828.9 1745.0 828.5 1756.9 829.0 C 1766.6 828.9 1820.1 828.1 1825.3 829.8 C 1844.1 836.1 1883.1 856.0 1902.2 865.2 L 1904.9 866.0 C 1906.9 870.3 1906.0 883.7 1905.9 888.9 L 1905.9 964.5 C 1891.5 964.7 1877.1 964.7 1862.7 964.6 C 1836.4 964.8 1810.2 964.8 1783.9 964.6 C 1750.5 964.3 1709.8 963.7 1676.8 964.9 C 1663.0 963.7 1625.5 964.9 1609.8 965.0 L 1610.0 888.3 C 1607.7 886.8 1600.5 883.5 1597.7 882.1 L 1589.2 878.2 C 1583.4 875.0 1577.7 871.9 1571.9 868.7 C 1570.8 868.3 1567.3 866.4 1566.1 865.8 L 1560.8 863.3 L 1560.0 862.5 L 1553.7 859.9 L 1553.0 859.6 L 1550.0 858.0 C 1534.6 849.7 1501.9 834.1 1485.7 828.1 L 1541.0 828.3 L 1611.3 828.2 L 1647.9 828.3 C 1654.7 828.3 1662.5 828.1 1669.1 828.4 z"/><path fill="rgb(31,168,144)" d="M 1669.1 828.4 C 1685.4 828.8 1701.8 829.0 1718.1 828.8 C 1730.2 828.9 1745.0 828.5 1756.9 829.0 C 1766.6 828.9 1820.1 828.1 1825.3 829.8 C 1844.1 836.1 1883.1 856.0 1902.2 865.2 L 1904.9 866.0 C 1906.9 870.3 1906.0 883.7 1905.9 888.9 C 1880.8 888.1 1852.4 888.4 1827.1 888.4 L 1695.8 888.3 C 1669.0 888.4 1636.4 889.5 1610.0 888.3 C 1607.7 886.8 1600.5 883.5 1597.7 882.1 L 1589.2 878.2 C 1583.4 875.0 1577.7 871.9 1571.9 868.7 C 1570.8 868.3 1567.3 866.4 1566.1 865.8 L 1560.8 863.3 L 1560.0 862.5 L 1553.7 859.9 L 1553.0 859.6 L 1550.0 858.0 C 1534.6 849.7 1501.9 834.1 1485.7 828.1 L 1541.0 828.3 L 1611.3 828.2 L 1647.9 828.3 C 1654.7 828.3 1662.5 828.1 1669.1 828.4 z"/><path fill="rgb(228,243,250)" d="M 1902.2 865.2 L 1904.9 866.0 C 1906.9 870.3 1906.0 883.7 1905.9 888.9 C 1880.8 888.1 1852.4 888.4 1827.1 888.4 L 1695.8 888.3 C 1669.0 888.4 1636.4 889.5 1610.0 888.3 C 1607.7 886.8 1600.5 883.5 1597.7 882.1 L 1589.2 878.2 C 1583.4 875.0 1577.7 871.9 1571.9 868.7 C 1570.8 868.3 1567.3 866.4 1566.1 865.8 C 1569.7 865.7 1575.5 865.5 1578.9 865.9 C 1588.7 865.5 1598.0 865.6 1607.8 865.6 C 1631.7 865.5 1655.6 865.6 1679.5 865.7 L 1712.7 865.6 C 1736.5 864.9 1762.2 865.5 1786.3 865.3 C 1797.0 865.5 1807.6 865.5 1818.3 865.4 L 1873.2 865.7 C 1881.5 865.7 1894.2 866.0 1902.2 865.2 z"/><path fill="rgb(4,38,59)" d="M 1640.8 909.1 C 1645.3 907.2 1669.8 907.9 1676.2 907.9 C 1676.2 911.5 1676.7 935.2 1675.9 940.6 C 1675.8 940.8 1674.2 941.6 1674.0 941.7 C 1668.7 941.8 1663.4 941.8 1658.1 941.7 L 1657.0 941.7 C 1651.5 941.9 1645.9 941.8 1640.4 941.8 C 1640.3 935.7 1639.8 913.7 1640.8 909.1 z"/><path fill="rgb(20,231,233)" d="M 1640.8 909.1 L 1641.0 910.6 C 1641.5 914.6 1651.3 913.1 1655.7 913.2 C 1655.8 919.4 1654.8 937.7 1657.0 941.7 C 1651.5 941.9 1645.9 941.8 1640.4 941.8 C 1640.3 935.7 1639.8 913.7 1640.8 909.1 z"/><path fill="rgb(20,231,233)" d="M 1659.2 913.1 L 1672.8 913.1 C 1672.7 919.2 1671.4 937.6 1674.0 941.7 C 1668.7 941.8 1663.4 941.8 1658.1 941.7 C 1660.2 937.8 1659.2 918.9 1659.2 913.1 z"/><path fill="rgb(94,194,232)" d="M 1773.1 912.5 C 1773.2 911.6 1773.7 908.4 1774.4 908.3 C 1781.8 907.6 1802.7 907.9 1809.3 907.9 C 1809.3 918.4 1809.9 931.1 1808.6 941.3 C 1808.5 941.6 1806.3 941.8 1806.1 941.8 C 1801.4 942.1 1796.7 942.1 1791.9 941.8 L 1788.7 942.2 C 1783.8 941.9 1778.8 942.0 1773.8 942.0 C 1773.8 934.4 1774.2 919.3 1773.1 912.5 z"/><path fill="rgb(94,194,232)" d="M 1773.1 912.5 C 1778.5 913.0 1782.9 913.0 1788.3 913.0 C 1788.4 922.8 1788.5 932.5 1788.7 942.2 C 1783.8 941.9 1778.8 942.0 1773.8 942.0 C 1773.8 934.4 1774.2 919.3 1773.1 912.5 z"/><path fill="rgb(4,38,59)" d="M 1773.1 912.5 C 1773.2 911.6 1773.7 908.4 1774.4 908.3 C 1781.8 907.6 1802.7 907.9 1809.3 907.9 C 1809.3 918.4 1809.9 931.1 1808.6 941.3 C 1808.5 941.6 1806.3 941.8 1806.1 941.8 C 1805.3 934.8 1805.7 920.6 1805.7 913.1 C 1801.1 913.0 1796.6 913.0 1792.0 913.0 C 1792.0 922.4 1792.2 932.5 1791.9 941.8 L 1788.7 942.2 C 1788.5 932.5 1788.4 922.8 1788.3 913.0 C 1782.9 913.0 1778.5 913.0 1773.1 912.5 z"/><path fill="rgb(8,60,92)" d="M 1707.8 909.2 C 1712.3 907.2 1736.3 908.0 1742.9 908.0 C 1742.9 913.9 1743.3 934.4 1742.5 940.9 C 1742.4 941.1 1740.7 942.1 1740.3 942.3 C 1734.7 941.6 1731.5 941.9 1726.0 941.8 L 1722.4 942.0 C 1717.5 941.8 1712.4 941.9 1707.5 941.9 C 1707.4 936.3 1707 913.9 1707.8 909.2 z"/><path fill="rgb(20,231,233)" d="M 1707.8 909.2 C 1708.6 915.4 1715.8 912.8 1722.2 912.8 C 1722.2 922.6 1722.3 932.3 1722.4 942.0 C 1717.5 941.8 1712.4 941.9 1707.5 941.9 C 1707.4 936.3 1707 913.9 1707.8 909.2 z"/><path fill="rgb(20,231,233)" d="M 1726.0 912.9 C 1730.3 912.9 1734.7 912.9 1739.0 913.0 C 1739.0 919.3 1738.0 937.4 1740.3 942.3 C 1734.7 941.6 1731.5 941.9 1726.0 941.8 C 1726.3 932.7 1726.0 922.1 1726.0 912.9 z"/><path fill="rgb(20,231,233)" d="M 1839.3 912.6 C 1839.5 911.8 1840.0 908.5 1840.8 908.4 C 1849.2 907.5 1867.5 907.9 1875.3 907.8 C 1875.2 914.8 1876.1 936.5 1874.1 941.4 C 1869.8 942.0 1863.0 941.8 1858.6 941.7 L 1855.4 941.9 L 1839.8 941.9 C 1839.9 934.2 1840.3 919.5 1839.3 912.6 z"/><path fill="rgb(20,231,233)" d="M 1839.3 912.6 C 1844.8 913.1 1850.0 912.7 1855.0 913.2 C 1855.1 920.3 1854.6 935.8 1855.4 941.9 L 1839.8 941.9 C 1839.9 934.2 1840.3 919.5 1839.3 912.6 z"/><path fill="rgb(4,38,59)" d="M 1839.3 912.6 C 1839.5 911.8 1840.0 908.5 1840.8 908.4 C 1849.2 907.5 1867.5 907.9 1875.3 907.8 C 1875.2 914.8 1876.1 936.5 1874.1 941.4 C 1870.3 938.1 1872.0 919.1 1872.0 912.9 C 1867.5 912.9 1863.0 912.6 1858.7 913.2 C 1858.7 922.7 1858.7 932.2 1858.6 941.7 L 1855.4 941.9 C 1854.6 935.8 1855.1 920.3 1855.0 913.2 C 1850.0 912.7 1844.8 913.1 1839.3 912.6 z"/><path fill="rgb(255,255,255)" d="M 1490.7 950.8 L 1497.8 955.7 L 1499.6 956.2 C 1501.7 957.8 1503.7 959.3 1505.9 960.7 L 1507.4 961.3 L 1512.3 965.1 L 1515.3 966.7 C 1516.8 967.8 1519.6 969.8 1520.8 970.9 L 1523.7 971.5 C 1527.5 975.1 1531.4 976.7 1535.5 979.7 L 1537.7 980.3 L 1541.6 983.6 L 1545.9 985.7 L 1550.2 988.9 L 1553.8 990.7 L 1558.1 994.1 L 1560.5 994.7 L 1564.8 998.2 L 1568.8 999.9 C 1572.4 1002.8 1576.2 1005.1 1580.2 1007.5 L 1582.9 1008.4 L 1585.6 1010.7 L 1589.8 1012.8 C 1591.8 1014.2 1593.6 1015.6 1595.8 1016.8 C 1600.0 1019.7 1603.6 1022.0 1607.9 1024.7 C 1607.8 1052.7 1607.8 1080.8 1608.0 1108.8 C 1608.0 1135.2 1607.9 1162 1608.3 1188.4 C 1597.5 1188.4 1585.5 1188.2 1574.9 1188.6 L 1414.8 1188.5 L 1414.8 1108.9 L 1415.2 1023.9 L 1424 1015.2 C 1437.7 1002.2 1451.2 989.0 1464.7 975.8 C 1473.3 967.4 1482.0 959.1 1490.7 950.8 z"/><path fill="rgb(20,231,233)" d="M 1608.0 1108.8 C 1608.0 1135.2 1607.9 1162 1608.3 1188.4 C 1597.5 1188.4 1585.5 1188.2 1574.9 1188.6 L 1414.8 1188.5 L 1414.8 1108.9 L 1608.0 1108.8 z"/><path fill="rgb(20,231,233)" d="M 1536.3 1058.6 L 1536.6 1057.3 C 1536.8 1056.7 1537.3 1054.5 1538.0 1054.5 C 1553.4 1053.9 1572.0 1054.1 1587.1 1054.1 C 1587.1 1059.6 1588.2 1077.0 1585.7 1080.3 C 1578.3 1080.1 1569.9 1080.5 1562.8 1080.0 L 1558.8 1080.6 C 1553.0 1079.9 1543.2 1080.2 1536.9 1080.2 C 1537.0 1073.6 1537.3 1064.9 1536.3 1058.6 z"/><path fill="rgb(20,231,233)" d="M 1536.3 1058.6 C 1542.9 1059.3 1550.7 1059.0 1557.5 1059.0 C 1557.8 1066.2 1558.0 1073.4 1558.8 1080.6 C 1553.0 1079.9 1543.2 1080.2 1536.9 1080.2 C 1537.0 1073.6 1537.3 1064.9 1536.3 1058.6 z"/><path fill="rgb(8,60,92)" d="M 1536.3 1058.6 L 1536.6 1057.3 C 1536.8 1056.7 1537.3 1054.5 1538.0 1054.5 C 1553.4 1053.9 1572.0 1054.1 1587.1 1054.1 C 1587.1 1059.6 1588.2 1077.0 1585.7 1080.3 C 1584.3 1074 1585.0 1065.8 1584.9 1059.0 L 1562.8 1058.9 C 1562.8 1066.0 1562.8 1073.0 1562.8 1080.0 L 1558.8 1080.6 C 1558.0 1073.4 1557.8 1066.2 1557.5 1059.0 C 1550.7 1059.0 1542.9 1059.3 1536.3 1058.6 z"/><path fill="rgb(20,231,233)" d="M 1454.0 1058.2 L 1454.1 1056.6 C 1454.2 1055.8 1454.3 1054.5 1454.5 1054.5 C 1470.0 1053.7 1485.9 1054.0 1501.5 1054.2 C 1504.1 1054.2 1502.9 1064.0 1502.9 1066.2 C 1503.2 1070.0 1503.9 1077.2 1501.9 1080.4 C 1494.4 1080.3 1486.6 1080.5 1479.2 1080.2 C 1477.8 1080.2 1476.4 1080.3 1475.0 1080.4 C 1468.0 1080.2 1460.8 1080.3 1453.8 1080.3 C 1453.8 1073.5 1453.5 1064.8 1454.0 1058.2 z"/><path fill="rgb(20,231,233)" d="M 1454.0 1058.2 C 1458.0 1059.1 1470.1 1058.7 1474.9 1058.7 L 1475.0 1080.4 C 1468.0 1080.2 1460.8 1080.3 1453.8 1080.3 C 1453.8 1073.5 1453.5 1064.8 1454.0 1058.2 z"/><path fill="rgb(8,60,92)" d="M 1454.0 1058.2 L 1454.1 1056.6 C 1454.2 1055.8 1454.3 1054.5 1454.5 1054.5 C 1470.0 1053.7 1485.9 1054.0 1501.5 1054.2 C 1504.1 1054.2 1502.9 1064.0 1502.9 1066.2 L 1502.7 1064.6 C 1502.4 1061.7 1502.5 1061.6 1501.5 1058.8 C 1494.1 1058.8 1486.6 1058.8 1479.2 1058.8 C 1479.2 1065.9 1479.2 1073.0 1479.2 1080.2 C 1477.8 1080.2 1476.4 1080.3 1475.0 1080.4 L 1474.9 1058.7 C 1470.1 1058.7 1458.0 1059.1 1454.0 1058.2 z"/><path fill="rgb(29,150,201)" d="M 1501.5 1058.8 C 1502.5 1061.6 1502.4 1061.7 1502.7 1064.6 L 1502.9 1066.2 C 1503.2 1070.0 1503.9 1077.2 1501.9 1080.4 C 1500.5 1074.8 1500.5 1064.5 1501.5 1058.8 z"/><path fill="rgb(255,255,255)" d="M 1395.8 674.3 L 1579.9 674.4 L 1630.8 725.2 C 1643.3 737.4 1657.3 750.2 1669.2 762.7 C 1669.0 784.6 1668.9 806.5 1669.1 828.4 C 1662.5 828.1 1654.7 828.3 1647.9 828.3 L 1611.3 828.2 L 1541.0 828.3 L 1485.7 828.1 L 1483.5 826.6 C 1481.8 821.3 1482.6 775.0 1482.6 767.1 C 1453.4 736.5 1424.4 705.5 1395.8 674.3 z"/><path fill="rgb(94,194,232)" d="M 1416.4 679.4 C 1416.5 678.7 1416.3 678.8 1416.6 678.2 C 1417.9 677.4 1456.7 677.3 1459.7 678.8 L 1460.5 679.5 C 1464.0 676.7 1478.6 677.6 1483.4 678.2 C 1490.4 677.8 1527.9 677.3 1533.5 678.5 C 1543.6 678.9 1553.0 675.6 1559.3 683.0 L 1559.8 681.5 C 1559.4 681.0 1558.3 679.9 1558.4 679.2 C 1559.7 678.1 1574.4 678.6 1577.2 678.7 C 1581.5 683.3 1585.6 688.1 1590 692.8 L 1592.1 695.1 C 1597.7 699.8 1603.7 706.3 1608.9 711.6 L 1611.5 713.9 C 1615.3 718.4 1621.9 725.2 1626.1 729.7 L 1627.6 731.3 C 1631.5 735.2 1638.8 743.1 1642.3 747.2 L 1623.0 747.1 L 1621.8 747.1 C 1615.4 747.2 1605.6 746.8 1599.7 747.5 C 1594.3 748.1 1582.5 748.2 1577.2 747.2 L 1576.3 747.0 C 1572.3 748.3 1556.6 748.4 1552.8 747.6 C 1549.4 747.9 1548.6 747.8 1545.2 747.4 C 1539.8 747.1 1534.8 747.3 1529.5 747.1 L 1527.3 747.4 C 1520.7 747.2 1514.3 747.1 1507.7 747.5 C 1504.4 747.9 1503.4 748.3 1500.2 747.5 C 1494.7 747.2 1489.3 747.2 1483.8 747.2 C 1478.8 742.4 1474.9 738.1 1470.1 733.3 L 1467.1 730.1 C 1462.2 726.7 1455.5 718.8 1450.8 714.3 L 1448.4 712 C 1443.8 706.7 1437.2 701.1 1432.0 695.3 L 1430.1 693.1 C 1426.1 689.9 1420.5 683.4 1416.4 679.4 z"/><path fill="rgb(8,60,92)" d="M 1538.0 732.1 C 1548.2 732.1 1557.7 729.0 1564.0 736.6 L 1565.1 735.6 C 1567.0 737.1 1567.7 737.7 1569.4 739.4 C 1571.7 742.0 1574.1 744.4 1576.3 747.0 C 1572.3 748.3 1556.6 748.4 1552.8 747.6 C 1547.5 741.5 1543.8 737.7 1538.0 732.1 z"/><path fill="rgb(94,194,232)" d="M 1569.4 739.4 C 1571.7 742.0 1574.1 744.4 1576.3 747.0 C 1572.3 748.3 1556.6 748.4 1552.8 747.6 C 1556.8 746.7 1572.1 747.5 1573.2 746.4 C 1573.0 745.0 1569.7 742.3 1568.6 741.3 L 1569.4 739.4 z"/><path fill="rgb(14,110,158)" d="M 1565.1 735.6 C 1567.0 737.1 1567.7 737.7 1569.4 739.4 L 1568.6 741.3 C 1566.5 739.8 1565.5 738.5 1564.0 736.6 L 1565.1 735.6 z"/><path fill="rgb(8,60,92)" d="M 1479.1 695.1 C 1491.1 695.2 1497.4 691.9 1504.8 700.8 C 1509.0 704.3 1512.8 708.3 1516.7 712.0 C 1510.8 712.0 1494.5 713.5 1492.5 709.7 C 1492.3 709.3 1490.8 708.3 1490.4 708.0 C 1487.6 703.5 1482.7 699.7 1479.1 695.1 z"/><path fill="rgb(8,60,92)" d="M 1416.4 679.4 C 1416.5 678.7 1416.3 678.8 1416.6 678.2 C 1417.9 677.4 1456.7 677.3 1459.7 678.8 C 1457.0 678.8 1440.7 678.4 1439.5 679.4 C 1439.8 680.6 1442.7 682.6 1443.6 683.3 C 1444.0 683.9 1444.5 684.5 1445.0 685.2 L 1445.0 688.0 C 1446.1 688.9 1448.7 691.0 1448.9 692.4 C 1448.3 693.5 1432.4 693.0 1430.1 693.1 C 1426.1 689.9 1420.5 683.4 1416.4 679.4 z"/><path fill="rgb(228,243,250)" d="M 1416.4 679.4 C 1416.5 678.7 1416.3 678.8 1416.6 678.2 C 1417.9 677.4 1456.7 677.3 1459.7 678.8 C 1457.0 678.8 1440.7 678.4 1439.5 679.4 C 1439.8 680.6 1442.7 682.6 1443.6 683.3 L 1441.2 684.0 C 1436.1 678.0 1437.0 678.8 1429 678.9 C 1424.7 678.9 1420.8 678.7 1416.4 679.4 z"/><path fill="rgb(29,150,201)" d="M 1443.6 683.3 C 1444.0 683.9 1444.5 684.5 1445.0 685.2 L 1445.0 688.0 C 1443.5 686.5 1442.5 685.5 1441.2 684.0 L 1443.6 683.3 z"/><path fill="rgb(8,60,92)" d="M 1567.8 713.8 C 1578.3 713.9 1586.7 711.0 1593.7 718.5 L 1595.0 717.8 C 1597.2 719.2 1597.5 719.5 1599.4 721.3 L 1598.5 723.3 C 1599.5 724.3 1603.1 727.8 1603.6 728.8 C 1603.3 730.8 1585.7 730.0 1583.6 730.0 C 1578.3 724.6 1573.2 719.2 1567.8 713.8 z"/><path fill="rgb(29,150,201)" d="M 1595.0 717.8 C 1597.2 719.2 1597.5 719.5 1599.4 721.3 L 1598.5 723.3 C 1596.6 721.8 1595.3 720.3 1593.7 718.5 L 1595.0 717.8 z"/><path fill="rgb(8,60,92)" d="M 1432.0 695.3 C 1438.5 694.9 1445.5 695.1 1452.0 695.1 C 1454.2 697.1 1455.8 698.7 1457.8 700.7 C 1458.9 701.9 1459.3 702.4 1460.5 703.3 L 1469.2 711.9 C 1462.3 712.0 1455.3 712.0 1448.4 712 C 1443.8 706.7 1437.2 701.1 1432.0 695.3 z"/><path fill="rgb(8,60,92)" d="M 1459.5 699.7 C 1458.8 698.9 1455.8 696.5 1456.3 695.4 C 1459.1 694.5 1466.7 695.4 1470.0 695.0 C 1475.0 694.6 1475.8 695.4 1479.1 698.6 C 1482.8 703.1 1486.4 706.1 1490.1 710.4 C 1490.5 713.3 1474.7 711.9 1471.6 712.0 C 1468.1 708.5 1464.7 705.0 1461.3 701.5 L 1459.5 699.7 z"/><path fill="rgb(8,60,92)" d="M 1450.8 714.3 C 1457.2 713.2 1464.4 713.8 1471.0 714.0 L 1486.1 729.9 C 1479.8 729.9 1473.4 730.0 1467.1 730.1 C 1462.2 726.7 1455.5 718.8 1450.8 714.3 z"/><path fill="rgb(8,60,92)" d="M 1585.9 732.1 C 1592.9 732.0 1599.8 732.0 1606.7 732.1 C 1612.0 737.1 1616.6 741.9 1621.8 747.1 C 1615.4 747.2 1605.6 746.8 1599.7 747.5 C 1595.4 741.6 1591.0 737.4 1585.9 732.1 z"/><path fill="rgb(8,60,92)" d="M 1514.8 731.9 C 1522.0 731.9 1528.8 732.0 1535.9 732.2 C 1537.5 733.8 1549.1 745.1 1549.3 746.4 C 1548.4 747.1 1546.3 747.2 1545.2 747.4 C 1539.8 747.1 1534.8 747.3 1529.5 747.1 C 1524.8 742.3 1519.1 736.8 1514.8 731.9 z"/><path fill="rgb(8,60,92)" d="M 1592.1 695.1 C 1597.7 699.8 1603.7 706.3 1608.9 711.6 C 1603.0 712.4 1596.0 712.1 1590.0 712.0 L 1573.8 695.2 C 1579.9 695.1 1586.0 695.2 1592.1 695.1 z"/><path fill="rgb(8,60,92)" d="M 1491.7 732.0 C 1498.5 732.0 1505.3 732.0 1512.2 732.1 C 1517.2 737.2 1522.3 742.2 1527.3 747.4 C 1520.7 747.2 1514.3 747.1 1507.7 747.5 C 1504.3 746.4 1494.6 735.3 1491.7 732.0 z"/><path fill="rgb(8,60,92)" d="M 1533.5 678.5 C 1543.6 678.9 1553.0 675.6 1559.3 683.0 C 1562.0 686.2 1566 690.1 1569 693.1 L 1547.6 693.1 C 1542.8 688.4 1538.1 683.5 1533.5 678.5 z"/><path fill="rgb(8,60,92)" d="M 1611.5 713.9 C 1615.3 718.4 1621.9 725.2 1626.1 729.7 C 1620.3 730.3 1613.5 730.0 1607.6 730.0 C 1604.8 727.2 1602.1 724.3 1599.4 721.3 C 1597.5 719.5 1597.2 719.2 1595.0 717.8 C 1594.2 716.8 1593.2 715.8 1592.8 714.6 L 1593.0 714.3 C 1594.6 713.7 1608.8 713.9 1611.5 713.9 z"/><path fill="rgb(8,60,92)" d="M 1565.1 735.6 C 1564.6 734.9 1563.5 733.5 1563.4 732.6 C 1564.0 731.6 1580.3 732.1 1582.5 732.1 L 1597.6 746.9 C 1591.5 746.9 1583.0 746.7 1577.2 747.2 L 1576.3 747.0 C 1574.1 744.4 1571.7 742.0 1569.4 739.4 C 1567.7 737.7 1567.0 737.1 1565.1 735.6 z"/><path fill="rgb(8,60,92)" d="M 1470.1 733.3 C 1474.2 731.1 1483.4 732.0 1488.6 732.1 C 1490.5 734.0 1501.8 745.0 1502.5 746.4 C 1502.0 746.8 1500.8 747.3 1500.2 747.5 C 1494.7 747.2 1489.3 747.2 1483.8 747.2 C 1478.8 742.4 1474.9 738.1 1470.1 733.3 z"/><path fill="rgb(8,60,92)" d="M 1462.9 678.9 C 1468.4 678.8 1478.5 679.2 1483.4 678.2 C 1488.3 683.4 1492.7 688.0 1497.8 693.1 L 1476.6 693.0 C 1471.8 688.5 1467.3 683.8 1462.9 678.9 z"/><path fill="rgb(8,60,92)" d="M 1443.6 683.3 C 1442.7 682.6 1439.8 680.6 1439.5 679.4 C 1440.7 678.4 1457.0 678.8 1459.7 678.8 L 1460.5 679.5 C 1464.4 684.2 1469.3 688.6 1473.6 693.0 L 1452.7 693.0 C 1450.1 690.4 1447.5 687.8 1445.0 685.2 C 1444.5 684.5 1444.0 683.9 1443.6 683.3 z"/><path fill="rgb(8,60,92)" d="M 1559.8 681.5 C 1559.4 681.0 1558.3 679.9 1558.4 679.2 C 1559.7 678.1 1574.4 678.6 1577.2 678.7 C 1581.5 683.3 1585.6 688.1 1590 692.8 C 1584.0 693.8 1577.5 693.0 1571.3 692.8 C 1567.6 689.2 1563.7 684.7 1559.8 681.5 z"/><path fill="rgb(8,60,92)" d="M 1627.6 731.3 C 1631.5 735.2 1638.8 743.1 1642.3 747.2 L 1623.0 747.1 C 1620.7 742.5 1614.1 736.4 1610.2 732.0 C 1615.9 732.0 1622.1 732.3 1627.6 731.3 z"/><path fill="rgb(29,150,201)" d="M 1479.1 698.6 C 1483.5 702.1 1485.8 705.8 1490.4 708.0 L 1490.1 710.4 C 1486.4 706.1 1482.8 703.1 1479.1 698.6 z"/><path fill="rgb(29,150,201)" d="M 1459.5 699.7 L 1461.3 701.5 L 1460.5 703.3 C 1459.3 702.4 1458.9 701.9 1457.8 700.7 L 1459.5 699.7 z"/><path fill="rgb(8,60,92)" d="M 1530.0 699.2 C 1528.7 698.2 1527.4 697.1 1526.6 695.6 C 1529.4 694.5 1544.1 695.0 1547.5 695.9 C 1553.3 701.3 1558.3 706.4 1563.8 712.1 L 1542.9 712.1 C 1538.6 707.8 1534.3 703.5 1530.0 699.2 z"/><path fill="rgb(14,110,158)" d="M 1530.0 699.2 C 1528.7 698.2 1527.4 697.1 1526.6 695.6 C 1529.4 694.5 1544.1 695.0 1547.5 695.9 C 1541.0 696.5 1532.3 693.8 1530.0 699.2 z"/><path fill="rgb(8,60,92)" d="M 1502.1 695.2 L 1523.5 695.1 C 1529.4 701.4 1534.1 706.2 1540.5 711.9 L 1519.2 711.9 L 1502.1 695.2 z"/><path fill="rgb(8,60,92)" d="M 1550.1 695.3 L 1571.1 695.4 C 1576.3 700.7 1581.4 706.3 1586.8 711.3 L 1587.5 712.0 C 1580.5 712.1 1573.5 712.1 1566.5 712.0 C 1561.2 706.7 1555.2 700.8 1550.1 695.3 z"/><path fill="rgb(8,60,92)" d="M 1496.8 714.0 L 1518.3 714.0 C 1523.6 719.2 1528.9 724.5 1534.0 730.0 C 1527.1 730.0 1520.2 730.1 1513.3 730.0 C 1507.7 724.6 1502.7 719.4 1496.8 714.0 z"/><path fill="rgb(8,60,92)" d="M 1521.0 714.0 L 1541.7 714.1 C 1547.2 719.2 1552.5 724.5 1557.6 730.0 L 1536.5 730.0 L 1521.0 714.0 z"/><path fill="rgb(8,60,92)" d="M 1544.4 713.8 C 1551.3 713.6 1558.3 713.7 1565.2 713.8 C 1570.7 719.4 1575.0 724.0 1580.2 729.9 L 1560.0 730.0 C 1554.9 724.5 1549.7 719.0 1544.4 713.8 z"/><path fill="rgb(8,60,92)" d="M 1473.5 713.9 L 1493.9 714.0 L 1510.7 729.9 C 1503.2 730.0 1496.7 730.0 1489.3 729.7 C 1484.0 724.8 1478.5 719.1 1473.5 713.9 z"/><path fill="rgb(14,110,158)" d="M 1509.8 679.0 L 1531.4 678.9 C 1536.0 684.0 1540.2 688.1 1544.9 693.1 L 1523.6 693.0 L 1509.8 679.0 z"/><path fill="rgb(8,60,92)" d="M 1486.0 679.0 L 1507.5 679.0 C 1513.3 685.3 1515.5 687.3 1521.7 693.1 C 1514.7 693.2 1507.7 693.1 1500.6 693.1 C 1495.7 688.5 1491.0 683.6 1486.0 679.0 z"/><path fill="rgb(8,60,92)" d="M 1616.6 788.0 C 1621.4 786.1 1635.1 786.8 1641.0 786.8 C 1641.0 792.2 1643.0 813.2 1639.2 815.4 C 1635.7 815.2 1632.4 815.1 1628.9 815.0 L 1626.6 815.4 C 1625.4 815.3 1616.9 815.5 1616.8 814.4 C 1616.3 807.0 1615.6 795.1 1616.6 788.0 z"/><path fill="rgb(94,194,232)" d="M 1626.6 815.4 C 1625.4 815.3 1616.9 815.5 1616.8 814.4 C 1616.3 807.0 1615.6 795.1 1616.6 788.0 C 1618.6 794.7 1625.4 788.4 1625.8 792.1 C 1626.7 799.3 1626.3 808.0 1626.6 815.4 z"/><path fill="rgb(20,231,233)" d="M 1628.9 815.0 C 1629.0 809.7 1628.0 796.2 1629.9 791.3 C 1630.1 790.9 1636.2 790.8 1636.5 791.2 C 1639.8 796.2 1637.0 808.3 1639.2 815.4 C 1635.7 815.2 1632.4 815.1 1628.9 815.0 z"/><path fill="rgb(8,60,92)" d="M 1513.2 790.1 L 1513.3 788.9 C 1513.5 784.9 1533.7 786.7 1537.9 786.7 C 1537.9 792.3 1539.1 812.3 1536.3 815.1 C 1532.5 815.0 1528.9 815.0 1525.2 814.8 L 1523.9 814.8 C 1520.4 814.9 1516.6 814.9 1513.2 814.7 C 1513.2 806.9 1512.9 797.8 1513.2 790.1 z"/><path fill="rgb(20,231,233)" d="M 1513.2 790.1 C 1516.5 791.4 1519.3 791.1 1522.9 791.3 C 1523.0 796.4 1522.6 810.9 1523.9 814.8 C 1520.4 814.9 1516.6 814.9 1513.2 814.7 C 1513.2 806.9 1512.9 797.8 1513.2 790.1 z"/><path fill="rgb(20,231,233)" d="M 1525.3 791.8 C 1544.1 788.1 1530.2 802.0 1536.3 815.1 C 1532.5 815.0 1528.9 815.0 1525.2 814.8 C 1526.4 811.0 1526.1 795.6 1525.3 791.8 z"/><path fill="rgb(20,231,233)" d="M 1563.8 787.6 C 1570.9 786.2 1581.0 786.7 1588.5 786.7 C 1588.6 792.2 1589.7 812.6 1587.3 815.1 C 1583.7 815.0 1580.0 815.1 1576.4 814.9 L 1574.7 815.0 C 1562.7 815.3 1564.7 816.6 1564.5 804.4 C 1564.4 799.5 1564.8 792.2 1563.8 787.6 z"/><path fill="rgb(20,231,233)" d="M 1563.8 787.6 L 1564.3 788.9 C 1565.6 792.2 1570.7 791.0 1574.2 791.5 C 1574.0 796.1 1573.9 810.9 1574.7 815.0 C 1562.7 815.3 1564.7 816.6 1564.5 804.4 C 1564.4 799.5 1564.8 792.2 1563.8 787.6 z"/><path fill="rgb(4,38,59)" d="M 1563.8 787.6 C 1570.9 786.2 1581.0 786.7 1588.5 786.7 C 1588.6 792.2 1589.7 812.6 1587.3 815.1 C 1585.1 809.8 1586.6 800.0 1586.2 793.9 C 1586.0 789.3 1580.6 791.0 1576.7 791.2 C 1575.8 791.4 1575.2 791.5 1574.2 791.5 C 1570.7 791.0 1565.6 792.2 1564.3 788.9 L 1563.8 787.6 z"/><path fill="rgb(8,60,92)" d="M 1574.2 791.5 C 1575.2 791.5 1575.8 791.4 1576.7 791.2 C 1576.7 798.0 1577.0 808.3 1576.4 814.9 L 1574.7 815.0 C 1573.9 810.9 1574.0 796.1 1574.2 791.5 z"/><path fill="rgb(31,168,144)" d="M 1445.1 975.0 C 1450.0 975.1 1458.6 975.0 1463.0 976.0 L 1464.7 975.8 C 1451.2 989.0 1437.7 1002.2 1424 1015.2 C 1420.5 1015.0 1415.2 1015.1 1411.6 1015.1 L 1409.8 1015.4 C 1406.3 1015.0 1395.9 1015.1 1391.8 1015.0 L 1389.4 1015.5 C 1387.1 1015.0 1381.9 1015.1 1379.4 1015.1 C 1372.7 1015.2 1366.1 1015.2 1359.4 1014.9 L 1357.5 1015.0 L 1351.7 1015.1 C 1347.6 1015.4 1345.2 1015.1 1341.1 1014.7 C 1352.1 1005.4 1370.0 985.8 1380.6 975.0 L 1392.9 975.1 L 1397.6 975.1 L 1409.3 975.0 L 1415.0 975.1 L 1430.2 975.0 L 1433.6 975.0 L 1445.1 975.0 z"/><path fill="rgb(4,38,59)" d="M 1366.0 784.6 L 1391.9 784.6 C 1391.9 791.9 1392.5 824.9 1390.6 833.6 C 1390.6 833.9 1387.8 835.1 1388.4 834.7 C 1388.3 834.7 1388.2 834.8 1388.0 834.8 C 1382.4 831.8 1371.5 824.9 1365.9 821.2 C 1365.6 809.3 1365.8 796.5 1366.0 784.6 z"/><path fill="rgb(31,168,144)" d="M 1349.2 975.1 L 1354.6 975.1 C 1357.5 975.1 1362.3 974.6 1364.2 976.0 C 1360.3 980.7 1328.7 1012.8 1321.6 1015.3 C 1321.3 1015.4 1314.8 1015.3 1313.8 1015.3 L 1309.3 1015.4 L 1295.2 1015.3 L 1292.2 1015.0 C 1288.6 1015.3 1281.4 1015.1 1277.5 1015.1 L 1272.6 1015.1 L 1259.0 1015.0 L 1255.9 1015.4 C 1253.5 1014.9 1245.6 1015.0 1242.7 1015.0 C 1256.8 1002.2 1270.5 989.1 1284.0 975.7 C 1288.1 974.7 1333.2 975.0 1340.7 975.0 L 1349.2 975.1 z"/><path fill="rgb(4,38,59)" d="M 1421.0 784.9 L 1447.0 784.9 L 1447.0 832.2 C 1438.4 832.2 1429.7 832.2 1421.1 832.1 L 1421.0 784.9 z"/><path fill="rgb(20,231,233)" d="M 1367.4 1063.0 L 1391.2 1063.2 C 1390.8 1069.9 1391.1 1077.7 1391.1 1084.5 C 1384.4 1084.5 1374.2 1085.1 1367.7 1083.8 C 1367.3 1082.2 1366.8 1080.7 1366.4 1079.1 C 1367.8 1073.5 1367.4 1068.9 1367.4 1063.0 z"/><path fill="rgb(20,231,233)" d="M 1339.8 1062.4 C 1347.0 1063.4 1355.4 1063.0 1362.9 1063.0 C 1362.9 1070.7 1362.4 1076.1 1364.4 1083.5 C 1359.7 1084.6 1345.1 1084.1 1339.4 1084.2 C 1340.2 1078.5 1340 1068.4 1339.8 1062.4 z"/><path fill="rgb(14,110,158)" d="M 1300.1 613.7 C 1301.4 628.1 1301.4 645.2 1302.3 660.1 C 1304.6 698.7 1306.7 744.3 1307.3 782.9 C 1305.6 782.1 1298.4 777.0 1296.5 775.7 C 1274.2 775.6 1248.8 776.8 1226.8 775.8 L 1227.1 775.4 C 1230.0 739.7 1229.6 697.4 1232.0 660.1 C 1232.5 645.1 1233.5 629.3 1234.2 614.1 L 1235.2 613.9 C 1240.1 614.2 1247.2 614.3 1252.0 614.0 C 1258.9 613.7 1265.5 613.9 1272.3 613.7 C 1281.3 613.5 1291.1 613.7 1300.1 613.7 z"/><path fill="rgb(94,194,232)" d="M 1300.1 613.7 C 1301.4 628.1 1301.4 645.2 1302.3 660.1 C 1292.5 660.1 1282.1 660.3 1272.3 660.0 C 1267.4 659.8 1260.2 659.8 1255.3 660.2 L 1251.8 659.8 L 1251.1 660.1 C 1244.7 660.0 1238.3 660.0 1232.0 660.1 C 1232.5 645.1 1233.5 629.3 1234.2 614.1 L 1235.2 613.9 C 1240.1 614.2 1247.2 614.3 1252.0 614.0 C 1258.9 613.7 1265.5 613.9 1272.3 613.7 C 1281.3 613.5 1291.1 613.7 1300.1 613.7 z"/><path fill="rgb(255,255,255)" d="M 1300.1 613.7 C 1301.4 628.1 1301.4 645.2 1302.3 660.1 C 1292.5 660.1 1282.1 660.3 1272.3 660.0 C 1272.4 644.7 1272.0 629.1 1272.3 613.7 C 1281.3 613.5 1291.1 613.7 1300.1 613.7 z"/><path fill="rgb(29,150,201)" d="M 1235.2 613.9 C 1240.1 614.2 1247.2 614.3 1252.0 614.0 C 1251.8 628.4 1251.5 645.4 1251.8 659.8 L 1251.1 660.1 C 1244.7 660.0 1238.3 660.0 1232.0 660.1 C 1232.5 645.1 1233.5 629.3 1234.2 614.1 L 1235.2 613.9 z"/><path fill="rgb(4,38,59)" d="M 1232.0 660.1 C 1238.3 660.0 1244.7 660.0 1251.1 660.1 C 1252.4 666.8 1251.6 692.7 1251.5 700.9 C 1251.2 725.6 1251.1 750.4 1251.0 775.1 C 1243.1 775.0 1235.1 775.1 1227.1 775.4 C 1230.0 739.7 1229.6 697.4 1232.0 660.1 z"/><path fill="rgb(8,60,92)" d="M 1251.8 659.8 L 1255.3 660.2 C 1261.3 660.6 1266.4 660.7 1272.5 660.7 C 1272.6 698.7 1272.5 736.8 1272.2 774.9 L 1251.0 775.1 C 1251.1 750.4 1251.2 725.6 1251.5 700.9 C 1251.6 692.7 1252.4 666.8 1251.1 660.1 L 1251.8 659.8 z"/><path fill="rgb(94,194,232)" d="M 1272.3 476.1 L 1305.2 476.0 C 1305.2 480.1 1305.9 516.5 1304.4 517.5 C 1302.8 518.7 1298.0 518.0 1296.0 518.0 C 1296.6 526.0 1296.9 533.4 1297.3 541.4 C 1298.2 550.4 1298.5 565.4 1298.9 575.0 C 1299.2 587.7 1299.5 601.1 1300.1 613.7 C 1291.1 613.7 1281.3 613.5 1272.3 613.7 C 1265.5 613.9 1258.9 613.7 1252.0 614.0 C 1247.2 614.3 1240.1 614.2 1235.2 613.9 L 1234.2 614.1 C 1234.3 606.3 1234.7 582.3 1235.6 575.0 C 1236.5 565.0 1236.9 551.8 1237.1 541.7 C 1237.5 533.7 1238.0 526.1 1238.2 518.1 C 1237.6 518.0 1230.7 518.3 1230.7 517.2 C 1230.0 503.8 1230.5 489.7 1230.6 476.2 L 1252.6 476.1 L 1272.3 476.1 z"/><path fill="rgb(4,38,59)" d="M 1272.3 476.1 L 1305.2 476.0 C 1305.2 480.1 1305.9 516.5 1304.4 517.5 C 1302.8 518.7 1298.0 518.0 1296.0 518.0 C 1288.9 517.7 1279.8 517.7 1272.8 518.0 L 1272.2 517.8 C 1265.7 518.1 1259.4 517.8 1252.9 518.1 L 1252.3 517.9 C 1247.5 518.0 1242.9 517.9 1238.2 518.1 C 1237.6 518.0 1230.7 518.3 1230.7 517.2 C 1230.0 503.8 1230.5 489.7 1230.6 476.2 L 1252.6 476.1 L 1272.3 476.1 z"/><path fill="rgb(14,110,158)" d="M 1272.3 476.1 L 1305.2 476.0 C 1305.2 480.1 1305.9 516.5 1304.4 517.5 C 1302.8 518.7 1298.0 518.0 1296.0 518.0 C 1288.9 517.7 1279.8 517.7 1272.8 518.0 L 1272.2 517.8 C 1272.3 505.0 1271.8 488.4 1272.3 476.1 z"/><path fill="rgb(8,60,92)" d="M 1252.6 476.1 L 1272.3 476.1 C 1271.8 488.4 1272.3 505.0 1272.2 517.8 C 1265.7 518.1 1259.4 517.8 1252.9 518.1 L 1252.3 517.9 C 1253.1 514.0 1252.8 481.4 1252.6 476.1 z"/><path fill="rgb(14,110,158)" d="M 1235.6 575.0 C 1241.2 575.0 1246.7 574.9 1252.2 575.1 L 1252.8 574.9 C 1259.2 575.0 1265.7 575.0 1272.1 574.9 C 1273.1 579.9 1272.5 606.9 1272.3 613.7 C 1265.5 613.9 1258.9 613.7 1252.0 614.0 C 1247.2 614.3 1240.1 614.2 1235.2 613.9 L 1234.2 614.1 C 1234.3 606.3 1234.7 582.3 1235.6 575.0 z"/><path fill="rgb(8,60,92)" d="M 1235.6 575.0 C 1241.2 575.0 1246.7 574.9 1252.2 575.1 C 1253.4 580.8 1252.5 606.4 1252.4 613.2 C 1248.0 613.2 1239.1 612.7 1235.2 613.9 L 1234.2 614.1 C 1234.3 606.3 1234.7 582.3 1235.6 575.0 z"/><path fill="rgb(255,255,255)" d="M 1272.8 518.0 C 1279.8 517.7 1288.9 517.7 1296.0 518.0 C 1296.6 526.0 1296.9 533.4 1297.3 541.4 C 1298.2 550.4 1298.5 565.4 1298.9 575.0 C 1293.8 575.0 1274.5 576.3 1272.0 573.2 C 1272.7 566.1 1272.5 549.2 1272.0 541.7 L 1271.9 541.0 C 1272.9 533.3 1271.7 524.7 1272.8 518.0 z"/><path fill="rgb(94,194,232)" d="M 1272.8 518.0 C 1279.8 517.7 1288.9 517.7 1296.0 518.0 C 1296.6 526.0 1296.9 533.4 1297.3 541.4 C 1291.8 541.4 1276.6 541.0 1272.0 541.7 L 1271.9 541.0 C 1272.9 533.3 1271.7 524.7 1272.8 518.0 z"/><path fill="rgb(29,150,201)" d="M 1272.2 517.8 L 1272.8 518.0 C 1271.7 524.7 1272.9 533.3 1271.9 541.0 L 1272.0 541.7 C 1265.5 541.6 1259.0 541.5 1252.5 541.5 C 1252.6 552.2 1252.3 564.4 1252.8 574.9 L 1252.2 575.1 C 1246.7 574.9 1241.2 575.0 1235.6 575.0 C 1236.5 565.0 1236.9 551.8 1237.1 541.7 C 1237.5 533.7 1238.0 526.1 1238.2 518.1 C 1242.9 517.9 1247.5 518.0 1252.3 517.9 L 1252.9 518.1 C 1259.4 517.8 1265.7 518.1 1272.2 517.8 z"/><path fill="rgb(14,110,158)" d="M 1252.3 517.9 L 1252.9 518.1 C 1252.5 525.5 1252.7 533.7 1252.6 541.2 C 1249.2 542.1 1241.0 541.8 1237.1 541.7 C 1237.5 533.7 1238.0 526.1 1238.2 518.1 C 1242.9 517.9 1247.5 518.0 1252.3 517.9 z"/><path fill="rgb(14,110,158)" d="M 1149.8 659.9 C 1159.3 660.2 1170.2 660.0 1179.8 660.0 L 1182.8 739.0 C 1183.3 749.9 1183.2 765.1 1184.0 775.7 C 1152.2 775.2 1120.2 776.5 1088 775.8 L 1088 775.4 C 1092.1 775.4 1100.7 775.6 1104.5 775.2 C 1105.8 736.8 1107.4 698.4 1109.3 660.0 C 1115.9 660.0 1122.6 659.9 1129.1 660.1 L 1129.7 659.9 L 1149.3 660.1 L 1149.8 659.9 z"/><path fill="rgb(4,38,59)" d="M 1109.3 660.0 C 1115.9 660.0 1122.6 659.9 1129.1 660.1 C 1130.0 696.5 1128.7 738.5 1128.0 775.0 C 1120.2 775.0 1112.3 775.0 1104.5 775.2 C 1105.8 736.8 1107.4 698.4 1109.3 660.0 z"/><path fill="rgb(8,60,92)" d="M 1129.7 659.9 L 1149.3 660.1 C 1150.6 665.7 1150.1 689.7 1150.1 697.0 L 1150.0 775.0 L 1128.0 775.0 C 1128.7 738.5 1130.0 696.5 1129.1 660.1 L 1129.7 659.9 z"/><path fill="rgb(94,194,232)" d="M 1130.5 541.4 C 1135.4 540.8 1144.7 541.0 1149.9 541.1 L 1150 541.8 C 1155.0 541.0 1168.5 541.3 1174.5 541.3 C 1175.3 550.2 1175.6 565.7 1175.9 575.0 C 1176.4 586.7 1176.6 602.0 1177.7 613.6 C 1178.7 627.3 1179.7 646.4 1179.8 660.0 C 1170.2 660.0 1159.3 660.2 1149.8 659.9 L 1149.3 660.1 L 1129.7 659.9 L 1129.1 660.1 C 1122.6 659.9 1115.9 660.0 1109.3 660.0 C 1110.0 645.6 1110.5 627.7 1111.8 613.5 C 1112.5 600.8 1112.8 587.7 1113.8 575.0 C 1114.2 564.8 1114.8 551.7 1115.5 541.6 C 1120.5 541.6 1125.5 541.9 1130.5 541.4 z"/><path fill="rgb(14,110,158)" d="M 1113.8 575.0 C 1119.3 575.0 1124.7 574.9 1130.1 575.1 L 1130.7 574.9 C 1137.1 575.1 1143.4 574.9 1149.7 575 C 1150.4 581.0 1150.3 607.1 1149.7 613.3 C 1144.8 614.1 1135.9 613.4 1129.9 613.9 L 1129.2 613.8 L 1111.8 613.5 C 1112.5 600.8 1112.8 587.7 1113.8 575.0 z"/><path fill="rgb(8,60,92)" d="M 1113.8 575.0 C 1119.3 575.0 1124.7 574.9 1130.1 575.1 C 1130.3 580.9 1130.6 610.0 1129.2 613.8 L 1111.8 613.5 C 1112.5 600.8 1112.8 587.7 1113.8 575.0 z"/><path fill="rgb(255,255,255)" d="M 1177.7 613.6 C 1178.7 627.3 1179.7 646.4 1179.8 660.0 C 1170.2 660.0 1159.3 660.2 1149.8 659.9 C 1150.3 644.7 1149.8 629.0 1150.0 613.8 C 1154.0 613.2 1172.6 613.5 1177.7 613.6 z"/><path fill="rgb(29,150,201)" d="M 1111.8 613.5 L 1129.2 613.8 L 1129.9 613.9 C 1129.5 620.6 1128.9 654.7 1129.7 659.9 L 1129.1 660.1 C 1122.6 659.9 1115.9 660.0 1109.3 660.0 C 1110.0 645.6 1110.5 627.7 1111.8 613.5 z"/><path fill="rgb(255,255,255)" d="M 1174.5 541.3 C 1175.3 550.2 1175.6 565.7 1175.9 575.0 C 1170.3 575.0 1154.3 575.4 1150.0 574.4 C 1150.3 564.4 1150.2 551.9 1150 541.8 C 1155.0 541.0 1168.5 541.3 1174.5 541.3 z"/><path fill="rgb(29,150,201)" d="M 1130.5 541.4 C 1135.4 540.8 1144.7 541.0 1149.9 541.1 L 1150 541.8 C 1143.8 542.3 1136.7 542.0 1130.5 542.0 C 1130.5 547.9 1130.1 570.5 1130.7 574.9 L 1130.1 575.1 C 1124.7 574.9 1119.3 575.0 1113.8 575.0 C 1114.2 564.8 1114.8 551.7 1115.5 541.6 C 1120.5 541.6 1125.5 541.9 1130.5 541.4 z"/><path fill="rgb(31,168,144)" d="M 1905.9 964.5 C 1927.7 964.9 1949.5 965.0 1971.2 964.9 L 1971.3 1044.2 C 1952.6 1035.8 1929.5 1027.9 1909.3 1024.8 C 1904.8 1022.7 1898.1 1023.1 1893.0 1023.1 C 1882.7 1004.2 1872.7 983.8 1862.7 964.6 C 1877.1 964.7 1891.5 964.7 1905.9 964.5 z"/><path fill="rgb(14,110,158)" d="M 985.6 476.0 L 1007.9 476.0 L 1027.9 476.0 L 1060.2 476.1 C 1060.2 487.1 1060.2 498.1 1060.2 509.0 C 1060.2 518.6 1061.7 519.2 1051.8 518.0 C 1052.0 525.8 1052 533.4 1052.6 541.1 C 1046.8 541.2 1032.9 540.8 1027.9 541.5 L 1027.8 540.8 C 1023.3 541.4 1013.6 541.1 1008.6 541.1 L 1007.8 540.9 C 1002.4 541.2 997.5 540.9 992.4 541.2 C 992.8 533.4 993.0 525.6 992.9 517.7 C 988.7 517.9 985.4 519.4 985.4 514.5 L 985.6 476.0 z"/><path fill="rgb(8,60,92)" d="M 985.6 476.0 L 1007.9 476.0 L 1027.9 476.0 C 1028 488.4 1027.5 504.8 1028.1 516.9 C 1023.7 518.3 1013.3 517.6 1007.9 517.9 C 1008.0 525.5 1007.7 533.4 1007.8 540.9 C 1002.4 541.2 997.5 540.9 992.4 541.2 C 992.8 533.4 993.0 525.6 992.9 517.7 C 988.7 517.9 985.4 519.4 985.4 514.5 L 985.6 476.0 z"/><path fill="rgb(4,38,59)" d="M 985.6 476.0 L 1007.9 476.0 C 1008.0 489.7 1007.9 503.4 1007.7 517.1 C 1003.6 517.1 996.6 516.9 992.9 517.7 C 988.7 517.9 985.4 519.4 985.4 514.5 L 985.6 476.0 z"/><path fill="rgb(94,194,232)" d="M 1031.8 517.3 C 1037.9 517.7 1046.8 517.2 1051.8 518.0 C 1052.0 525.8 1052 533.4 1052.6 541.1 C 1046.8 541.2 1032.9 540.8 1027.9 541.5 L 1027.8 540.8 C 1028.0 533.7 1027.5 525.4 1028.3 518.4 C 1028.4 517.6 1031.5 517.4 1031.8 517.3 z"/><path fill="rgb(14,110,158)" d="M 1150.0 475.9 L 1182.2 476.0 C 1182.5 490.2 1182.6 504.3 1182.4 518.5 C 1179.7 518.5 1176.5 518.3 1173.8 518.2 C 1173.9 525.9 1173.9 533.6 1174.5 541.3 C 1168.5 541.3 1155.0 541.0 1150 541.8 L 1149.9 541.1 C 1144.7 541.0 1135.4 540.8 1130.5 541.4 C 1125.5 541.9 1120.5 541.6 1115.5 541.6 C 1115.9 533.7 1116.1 525.9 1116.1 518.1 C 1114.5 518.0 1108.8 518.2 1108.7 517.2 C 1107.8 508.4 1108.2 483.7 1108.2 476.1 L 1130.2 476.0 L 1150.0 475.9 z"/><path fill="rgb(4,38,59)" d="M 1108.2 476.1 L 1130.2 476.0 C 1130.5 489.2 1130.4 504.7 1130.2 517.9 C 1125.5 518.1 1120.8 518.0 1116.1 518.1 C 1114.5 518.0 1108.8 518.2 1108.7 517.2 C 1107.8 508.4 1108.2 483.7 1108.2 476.1 z"/><path fill="rgb(8,60,92)" d="M 1130.2 476.0 L 1150.0 475.9 C 1150.2 489.7 1149.8 504.2 1150.2 517.8 C 1143.7 518.2 1137.3 517.9 1130.8 518.1 L 1130.2 517.9 C 1130.4 504.7 1130.5 489.2 1130.2 476.0 z"/><path fill="rgb(94,194,232)" d="M 1150.7 518.0 C 1157.4 518.0 1167.2 517.8 1173.8 518.2 C 1173.9 525.9 1173.9 533.6 1174.5 541.3 C 1168.5 541.3 1155.0 541.0 1150 541.8 L 1149.9 541.1 C 1150.4 534.8 1149.6 522.9 1150.7 518.0 z"/><path fill="rgb(255,255,255)" d="M 1028.2 574.8 C 1036.3 575.1 1045.7 574.9 1053.9 574.9 L 1055.5 613.7 C 1056.8 624.3 1056.9 647.4 1057.6 659.1 C 1047.7 659.2 1037.8 659.2 1027.9 659.1 L 1026.9 659.3 C 1020.2 658.9 1013.0 659.2 1006.3 659.1 C 1000.0 659.0 993.5 659.1 987.1 659.1 C 988.0 643.9 988.9 629.5 989.4 614.3 L 990.2 614.0 C 995.7 613.9 1001.2 614.1 1006.7 613.9 C 1013.3 613.5 1020.6 613.7 1027.2 613.7 C 1028.2 609.0 1027.7 582.6 1027.9 575.5 L 1028.2 574.8 z"/><path fill="rgb(29,150,201)" d="M 1006.7 613.9 C 1013.3 613.5 1020.6 613.7 1027.2 613.7 C 1026.4 620.2 1026.6 651.7 1026.9 659.3 C 1020.2 658.9 1013.0 659.2 1006.3 659.1 C 1000.0 659.0 993.5 659.1 987.1 659.1 C 988.0 643.9 988.9 629.5 989.4 614.3 L 990.2 614.0 C 995.7 613.9 1001.2 614.1 1006.7 613.9 z"/><path fill="rgb(94,194,232)" d="M 1028.2 574.8 C 1036.3 575.1 1045.7 574.9 1053.9 574.9 L 1055.5 613.7 L 1027.8 613.6 L 1027.9 659.1 L 1026.9 659.3 C 1026.6 651.7 1026.4 620.2 1027.2 613.7 C 1028.2 609.0 1027.7 582.6 1027.9 575.5 L 1028.2 574.8 z"/><path fill="rgb(29,150,201)" d="M 1027.8 540.8 L 1027.9 541.5 C 1032.9 540.8 1046.8 541.2 1052.6 541.1 L 1053.9 574.9 C 1045.7 574.9 1036.3 575.1 1028.2 574.8 L 1027.9 575.5 C 1023.6 574.6 1013.0 575.1 1007.8 574.9 L 1007.1 575.1 C 1001.8 574.9 996.4 575.0 991.1 575.1 L 992.4 541.2 C 997.5 540.9 1002.4 541.2 1007.8 540.9 L 1008.6 541.1 C 1013.6 541.1 1023.3 541.4 1027.8 540.8 z"/><path fill="rgb(255,255,255)" d="M 1052.6 541.1 L 1053.9 574.9 C 1045.7 574.9 1036.3 575.1 1028.2 574.8 C 1027.7 564.1 1028.0 552.3 1027.9 541.5 C 1032.9 540.8 1046.8 541.2 1052.6 541.1 z"/><path fill="rgb(14,110,158)" d="M 991.1 575.1 C 996.4 575.0 1001.8 574.9 1007.1 575.1 L 1007.8 574.9 C 1013.0 575.1 1023.6 574.6 1027.9 575.5 C 1027.7 582.6 1028.2 609.0 1027.2 613.7 C 1020.6 613.7 1013.3 613.5 1006.7 613.9 C 1001.2 614.1 995.7 613.9 990.2 614.0 L 989.4 614.3 C 989.4 601.4 990.3 587.9 991.1 575.1 z"/><path fill="rgb(8,60,92)" d="M 991.1 575.1 C 996.4 575.0 1001.8 574.9 1007.1 575.1 C 1007.9 584.8 1007.1 602.9 1007.0 613.0 C 1002.3 613.1 994.0 612.4 990.2 614.0 L 989.4 614.3 C 989.4 601.4 990.3 587.9 991.1 575.1 z"/></svg>